<svg xmlns="http://www.w3.org/2000/svg" fill="none" viewBox="0 0 653 653">
  <path fill="#FAFAFA" d="M101.42 329.8c-124.3 71.76-124.3 188.12.01 259.89 124.3 71.76 325.84 71.76 450.15 0 124.3-71.77 124.3-188.13-.01-259.9-124.3-71.76-325.84-71.76-450.15 0Z"/>
  <path fill="#37474f" d="M32 436.27v25.27l182.45 105.53V541.8L32 436.27Z"/>
  <path fill="#455a64" d="M214.45 541.8 556.2 344.47v25.26L214.45 567.08V541.8Z"/>
  <path fill="#EBEBEB" d="M214.45 532.23 25.55 423 372.65 222.6l188.9 109.21-347.09 200.42Z"/>
  <path fill="#E0E0E0" d="M25.56 423v13.41l188.9 109.22v-13.4L25.55 423Z"/>
  <g opacity=".15">
    <path fill="#000" d="M25.56 423v13.41l188.9 109.22v-13.4L25.55 423Z"/>
  </g>
  <path fill="#E0E0E0" d="M214.45 545.63 561.54 345.2v-13.4L214.45 532.23v13.4ZM154.5 472.68a8.07 8.07 0 0 1-3.97-1l-63.73-36.8a4.72 4.72 0 0 1-2.55-4.07c0-1.66.93-3.14 2.55-4.08l60.99-35.29c1.11-.64 2.52-1 3.98-1 1.45 0 2.87.36 3.98 1l63.73 36.8a4.72 4.72 0 0 1 2.55 4.07c0 1.66-.93 3.15-2.55 4.08l-60.99 35.29c-1.11.64-2.53 1-3.98 1Z"/>
  <path fill="#0d6efd" d="m215.1 432.93-58.4 33.8a5.16 5.16 0 0 1-4.67 0l-61.04-35.24a5.1 5.1 0 0 1-2.3-4.05l.03-5.11a5.23 5.23 0 0 1 2.36-4.05l58.41-33.8a5.17 5.17 0 0 1 4.67 0l61.04 35.25a5.1 5.1 0 0 1 2.3 4.04l-.03 5.12a5.23 5.23 0 0 1-2.36 4.04Z"/>
  <path fill="#000" d="M91.08 418.28a5.36 5.36 0 0 0-2.37 4.05l-.02 5.12a5.08 5.08 0 0 0 2.3 4.04l61.04 35.24c.67.39 1.55.56 2.43.55v-10.5a4.66 4.66 0 0 1-2.34-.56l-61.03-35.24c-1.19-.68-1.39-1.9 0-2.7Z" opacity=".2"/>
  <path fill="#fff" d="M215.55 419.97c.93.74.81 1.79-.35 2.46l-58.41 33.79c-.65.37-1.5.55-2.34.55v10.52c.82-.02 1.63-.2 2.25-.56l58.41-33.8a5.22 5.22 0 0 0 2.36-4.05l.04-5.1c0-1.36-.84-2.98-1.96-3.81Z" opacity=".4"/>
  <path fill="#0d6efd" d="m215.2 422.42-58.41 33.8c-1.3.74-3.38.74-4.67 0l-38.79-22.4-22.25-12.84c-1.29-.74-1.29-1.95 0-2.7l58.41-33.8a5.17 5.17 0 0 1 4.67 0l61.04 35.25c1.29.74 1.29 1.95 0 2.7Z"/>
  <path fill="#fff" d="M124.02 435.54c-.49-.28-.77-.55-.86-.8a1.9 1.9 0 0 1-.07-.9l1.38-15.12a.48.48 0 0 1 .25-.3c.2-.12.47-.17.79-.14.32.03.62.12.9.28l7.44 4.3c.61.35.93.69.94 1 0 .3-.01.57-.06.78l-.98 6.4 11.05-.59c.35-.03.81-.04 1.37-.02.56.01 1.14.2 1.75.55l7.45 4.3c.28.16.44.34.48.52.05.19-.03.34-.24.46a.93.93 0 0 1-.18.08l-.34.06-26.2.8c-.6.02-1.12 0-1.55-.04-.43-.05-.9-.22-1.39-.5l-1.93-1.12ZM124.98 414.7a2.2 2.2 0 0 1-.48-.19c-.28-.16-.44-.34-.5-.54-.04-.2.04-.36.24-.48l4.52-2.6a2.5 2.5 0 0 1 1.5-.34c.53.04 1 .13 1.4.25l48.85 14.75c.2.06.36.13.48.2.28.16.44.34.5.54.04.2-.04.36-.24.48l-4.63 2.67c-.43.25-.91.36-1.43.32-.52-.03-1.01-.12-1.46-.24l-48.75-14.81ZM181.38 404.66c.48.28.77.55.86.8.09.25.11.55.06.9l-1.38 15.13a.58.58 0 0 1-.1.2.58.58 0 0 1-.14.1c-.2.11-.47.16-.79.13a2.1 2.1 0 0 1-.9-.28l-7.44-4.3c-.62-.35-.94-.69-.97-1.01a2.5 2.5 0 0 1 .04-.8l1.03-6.37-11.1.56c-.35.03-.8.05-1.34.04-.54 0-1.12-.19-1.73-.54l-7.45-4.3c-.28-.16-.44-.33-.49-.52-.04-.19.04-.34.25-.46l.17-.07c.08-.03.2-.05.34-.06l26.21-.8c.6-.03 1.12-.02 1.55.03.43.05.9.22 1.39.5l1.93 1.12Z"/>
  <path fill="#0d6efd" d="m212.2 85.87-10.39-5.97a.98.98 0 0 0-.48-.12c-.18 0-.38.04-.59.14l-7.1 3.2a3.13 3.13 0 0 1 .2-1.72l8.2-16.53c.44-.85.11-1.94-.72-2.4l-8.9-5.14-.04-.03-10.34-5.94a1.87 1.87 0 0 0-2.46.58l-10.2 15.37c-.3.43-.8.78-1.35 1.03l-.79-7.8c-.05-.45-.25-.77-.52-.94l-10.42-5.98a.9.9 0 0 0-.42-.1c-.2 0-.44.06-.7.2l-13.8 7.99a3.71 3.71 0 0 0-1.67 2.58l-1.38 15.37a5.09 5.09 0 0 1-1.44 2.88 81.15 81.15 0 0 0-7.66 8.12 2.66 2.66 0 0 1-2.72.77l-8.87-3.1c-.9-.3-2.02.1-2.5.92l-10.16 17.6c-.48.83-.27 2 .45 2.62l7.12 6.14c.72.6 1.02 1.84.69 2.72a82.74 82.74 0 0 0-3.2 10.73c-.2.92-1 2.13-1.76 2.67l-12.63 8.88a3.7 3.7 0 0 0-1.41 2.72v15.96c0 .5.2.85.5 1.02l-.02.01 10.4 5.97v-.01c.3.17.66.17 1.08-.02l7.1-3.2c.08.6.03 1.25-.22 1.73l-8.19 16.53c-.43.85-.1 1.92.72 2.4l12.5 7.19h.01l6.78 3.92c.82.47 1.92.2 2.44-.58l10.23-15.37c.29-.43.8-.8 1.34-1.03l.79 7.8c.04.44.23.77.52.94l10.4 5.96c.31.17.7.16 1.13-.09l13.82-7.98a3.72 3.72 0 0 0 1.65-2.58l1.38-15.38a5.2 5.2 0 0 1 1.44-2.87c2.69-2.48 5.26-5.2 7.68-8.12a2.66 2.66 0 0 1 2.71-.77l8.87 3.1c.9.3 2.01-.1 2.5-.93l10.16-17.6c.47-.82.27-2-.45-2.6l-7.12-6.15a2.67 2.67 0 0 1-.69-2.74 82.78 82.78 0 0 0 3.2-10.7c.21-.94 1-2.14 1.76-2.69l12.63-8.88a3.75 3.75 0 0 0 1.41-2.71V86.9c0-.5-.2-.85-.5-1.03Zm-63.55 60.94c-3.97 2.28-7.71 3.3-10.97 3.17-1.5-2.7-2.36-6.2-2.36-10.42 0-14.9 10.45-33 23.34-40.44 3.99-2.3 7.72-3.29 11-3.16 1.5 2.7 2.34 6.2 2.34 10.41 0 14.89-10.47 33-23.35 40.44Z"/>
  <path fill="#fff" d="m212.2 85.87-10.39-5.97a.98.98 0 0 0-.48-.12c-.18 0-.38.04-.59.14l-7.1 3.2a3.13 3.13 0 0 1 .2-1.72l8.2-16.53c.44-.85.11-1.94-.72-2.4l-8.9-5.14-.04-.03-10.34-5.94a1.87 1.87 0 0 0-2.46.58l-10.2 15.37c-.3.43-.8.78-1.35 1.03l-.79-7.8c-.05-.45-.25-.77-.52-.94l-10.42-5.98a.9.9 0 0 0-.42-.1c-.2 0-.44.06-.7.2l-13.8 7.99a3.71 3.71 0 0 0-1.67 2.58l-1.38 15.37a5.09 5.09 0 0 1-1.44 2.88 81.15 81.15 0 0 0-7.66 8.12 2.66 2.66 0 0 1-2.72.77l-8.87-3.1c-.9-.3-2.02.1-2.5.92l-10.16 17.6c-.48.83-.27 2 .45 2.62l7.12 6.14c.72.6 1.02 1.84.69 2.72a82.74 82.74 0 0 0-3.2 10.73c-.2.92-1 2.13-1.76 2.67l-12.63 8.88a3.7 3.7 0 0 0-1.41 2.72v15.96c0 .5.2.85.5 1.02l-.02.01 10.4 5.97v-.01c.3.17.66.17 1.08-.02l7.1-3.2c.08.6.03 1.25-.22 1.73l-8.19 16.53c-.43.85-.1 1.92.72 2.4l12.5 7.19h.01l6.78 3.92c.82.47 1.92.2 2.44-.58l10.23-15.37c.29-.43.8-.8 1.34-1.03l.79 7.8c.04.44.23.77.52.94l10.4 5.96c.31.17.7.16 1.13-.09l13.82-7.98a3.72 3.72 0 0 0 1.65-2.58l1.38-15.38a5.2 5.2 0 0 1 1.44-2.87c2.69-2.48 5.26-5.2 7.68-8.12a2.66 2.66 0 0 1 2.71-.77l8.87 3.1c.9.3 2.01-.1 2.5-.93l10.16-17.6c.47-.82.27-2-.45-2.6l-7.12-6.15a2.67 2.67 0 0 1-.69-2.74 82.78 82.78 0 0 0 3.2-10.7c.21-.94 1-2.14 1.76-2.69l12.63-8.88a3.75 3.75 0 0 0 1.41-2.71V86.9c0-.5-.2-.85-.5-1.03Zm-63.55 60.94c-3.97 2.28-7.71 3.3-10.97 3.17-1.5-2.7-2.36-6.2-2.36-10.42 0-14.9 10.45-33 23.34-40.44 3.99-2.3 7.72-3.29 11-3.16 1.5 2.7 2.34 6.2 2.34 10.41 0 14.89-10.47 33-23.35 40.44Z" opacity=".4"/>
  <path fill="#000" d="M120.55 161.67c-.29-.9-1.18-1.34-2.05-.95l-5.18 2.33c.08.61.02 1.25-.23 1.74l-8.2 16.53c-.42.85-.1 1.92.73 2.41l12.49 7.18-2.1-1.22a1.85 1.85 0 0 1-.73-2.4l8.2-16.53a3.4 3.4 0 0 0-.2-2.99 27.9 27.9 0 0 1-2.73-6.1Zm29.95 30.82a1.4 1.4 0 0 1-.42-.88l-1.34-13.42c-.1-.95-.9-1.51-1.84-1.3-2.32.5-4.55.73-6.66.67-.42-.01-.9.1-1.33.29l.78 7.8c.06.45.25.78.53.93v.01l10.28 5.9Z" opacity=".1"/>
  <path fill="#0d6efd" d="M182.03 51.36a1.85 1.85 0 0 0-2.44.58l-10.22 15.37c-.17.24-.41.46-.68.65l10.4 5.98c.27-.2.51-.42.68-.68l10.2-15.36a1.9 1.9 0 0 1 2.24-.68l-10.18-5.86Zm19.77 28.53v.01c-.27-.16-.65-.16-1.07.02l-7.1 3.21c.06.46.21.9.41 1.25a27.39 27.39 0 0 1 2.74 6.1 1.75 1.75 0 0 0 .54.8 1.42 1.42 0 0 0 1.17.26c.1-.02.23-.06.34-.11l12.3-5.55c.1-.05.2-.08.31-.1.15-.05.3-.06.42-.02.14.01.26.05.35.12v-.01l-10.4-5.98Zm-45.5-26.27c-.3-.16-.7-.13-1.12.11l-13.82 7.97c-.57.33-1.08.98-1.38 1.67l10.38 5.97c.3-.7.82-1.34 1.4-1.67l13.8-7.99c.4-.21.77-.25 1.07-.13l-10.34-5.93Zm-47.06 77.08c-.28.4-.62.78-.96 1.03l-12.63 8.88c-.32.23-.6.58-.84.96l10.38 5.96c.23-.4.53-.74.85-.95l12.63-8.89c.33-.24.67-.6.97-1.03l-10.4-5.96Zm7.67-42.47c-.7.03-1.4.4-1.77 1.03l-10.16 17.59c-.22.39-.28.84-.23 1.28l10.39 5.98c-.07-.44.01-.9.23-1.3l10.17-17.6c.32-.58.97-.95 1.64-1.02l-10.27-5.96Z"/>
  <path fill="#fff" d="M182.03 51.36a1.85 1.85 0 0 0-2.44.58l-10.22 15.37c-.17.24-.41.46-.68.65l10.4 5.98c.27-.2.51-.42.68-.68l10.2-15.36a1.9 1.9 0 0 1 2.24-.68l-10.18-5.86Zm19.77 28.53v.01c-.27-.16-.65-.16-1.07.02l-7.1 3.21c.06.46.21.9.41 1.25a27.39 27.39 0 0 1 2.74 6.1 1.75 1.75 0 0 0 .54.8 1.42 1.42 0 0 0 1.17.26c.1-.02.23-.06.34-.11l12.3-5.55c.1-.05.2-.08.31-.1.15-.05.3-.06.42-.02.14.01.26.05.35.12v-.01l-10.4-5.98Zm-45.5-26.27c-.3-.16-.7-.13-1.12.11l-13.82 7.97c-.57.33-1.08.98-1.38 1.67l10.38 5.97c.3-.7.82-1.34 1.4-1.67l13.8-7.99c.4-.21.77-.25 1.07-.13l-10.34-5.93Zm-47.06 77.08c-.28.4-.62.78-.96 1.03l-12.63 8.88c-.32.23-.6.58-.84.96l10.38 5.96c.23-.4.53-.74.85-.95l12.63-8.89c.33-.24.67-.6.97-1.03l-10.4-5.96Zm7.67-42.47c-.7.03-1.4.4-1.77 1.03l-10.16 17.59c-.22.39-.28.84-.23 1.28l10.39 5.98c-.07-.44.01-.9.23-1.3l10.17-17.6c.32-.58.97-.95 1.64-1.02l-10.27-5.96Z" opacity=".8"/>
  <path fill="#0d6efd" d="M212.7 102.86V86.9c0-.95-.7-1.4-1.57-1.02l-12.3 5.55c-.87.39-1.76-.05-2.05-.95a27.6 27.6 0 0 0-2.74-6.1 3.4 3.4 0 0 1-.19-2.98l8.2-16.53c.42-.86.1-1.93-.73-2.4l-8.9-5.15a1.86 1.86 0 0 0-2.44.58l-10.22 15.36a3.4 3.4 0 0 1-2.68 1.33 27.5 27.5 0 0 0-6.65.68c-.93.2-1.75-.36-1.84-1.3l-1.35-13.43c-.1-.95-.84-1.33-1.67-.85l-13.82 7.98a3.72 3.72 0 0 0-1.65 2.58l-1.38 15.37a5.13 5.13 0 0 1-1.44 2.87 83.34 83.34 0 0 0-7.68 8.13 2.65 2.65 0 0 1-2.71.77l-8.87-3.1c-.9-.31-2.02.1-2.5.93l-10.15 17.6c-.47.82-.27 1.99.45 2.61l7.12 6.13c.72.63 1.02 1.85.69 2.74a83.1 83.1 0 0 0-3.2 10.71c-.21.93-.99 2.13-1.77 2.68l-12.62 8.89a3.73 3.73 0 0 0-1.41 2.71v15.96c0 .95.7 1.4 1.57 1.02l12.3-5.55c.87-.39 1.76.04 2.05.95.71 2.26 1.63 4.3 2.74 6.1.5.81.6 2.13.18 2.98l-8.2 16.53c-.42.85-.1 1.93.73 2.4l8.9 5.14c.83.48 1.92.22 2.45-.57l10.22-15.36a3.41 3.41 0 0 1 2.67-1.33c2.12.05 4.34-.17 6.66-.68.92-.2 1.75.35 1.84 1.3l1.35 13.42c.1.95.84 1.33 1.66.86l13.82-7.98a3.73 3.73 0 0 0 1.65-2.58l1.38-15.38c.09-.94.74-2.22 1.44-2.87a83.26 83.26 0 0 0 7.68-8.12 2.64 2.64 0 0 1 2.71-.77l8.87 3.1c.9.31 2.02-.1 2.5-.93l10.15-17.6c.48-.82.28-2-.44-2.61l-7.12-6.14a2.65 2.65 0 0 1-.7-2.73 83.15 83.15 0 0 0 3.2-10.71c.22-.93 1-2.13 1.78-2.68l12.62-8.89a3.72 3.72 0 0 0 1.41-2.71Zm-54.03 50.17c-12.9 7.44-23.35 1.41-23.35-13.48 0-14.88 10.45-32.99 23.34-40.43 12.9-7.45 23.35-1.41 23.35 13.48 0 14.88-10.45 32.99-23.34 40.43Z"/>
  <path fill="#fff" d="m211.12 85.88-12.29 5.55c-.87.4-1.76-.04-2.05-.95a28.04 28.04 0 0 0-2.74-6.1 3.42 3.42 0 0 1-.2-2.98l8.2-16.53c.44-.85.11-1.94-.72-2.4l-8.9-5.14a1.85 1.85 0 0 0-2.44.56l-10.23 15.37a3.36 3.36 0 0 1-2.66 1.34 27.2 27.2 0 0 0-6.66.66c-.93.21-1.75-.35-1.84-1.3l-1.35-13.42c-.1-.95-.85-1.33-1.67-.85l-13.82 7.97a3.72 3.72 0 0 0-1.64 2.59l-1.39 15.37c-.09.95-.73 2.23-1.43 2.87a84.1 84.1 0 0 0-7.68 8.13 2.65 2.65 0 0 1-2.72.77l-8.87-3.1c-.9-.31-2 .1-2.5.93l-10.15 17.59c-.47.82-.28 2 .44 2.63l7.13 6.12c.72.63 1.02 1.85.68 2.74a82.6 82.6 0 0 0-3.19 10.71c-.2.93-.99 2.13-1.77 2.68l-12.62 8.9a3.68 3.68 0 0 0-1.4 2.7v15.96c0 .95.7 1.4 1.56 1.01l12.3-5.53c.86-.4 1.77.04 2.05.94.7 2.26 1.64 4.3 2.75 6.1.5.8.6 2.13.18 2.97l-8.2 16.54c-.42.85-.1 1.93.73 2.4l8.9 5.15c.81.47 1.91.2 2.45-.58l10.21-15.37a3.41 3.41 0 0 1 2.68-1.32c2.11.05 4.33-.17 6.65-.68.92-.2 1.75.36 1.84 1.3l1.35 13.42c.1.95.84 1.33 1.66.86l13.82-7.98a3.72 3.72 0 0 0 1.65-2.58l1.38-15.37a5.2 5.2 0 0 1 1.44-2.88c2.69-2.48 5.26-5.2 7.68-8.12a2.66 2.66 0 0 1 2.71-.77l8.87 3.1c.9.3 2.01-.1 2.5-.93l10.16-17.6c.47-.82.27-2-.45-2.6l-7.12-6.15a2.64 2.64 0 0 1-.69-2.74 82.78 82.78 0 0 0 3.2-10.7c.21-.94 1-2.14 1.76-2.69l12.63-8.88a3.75 3.75 0 0 0 1.41-2.71V86.9c0-.95-.7-1.41-1.58-1.02Zm-52.46 67.16c-12.89 7.44-23.34 1.4-23.34-13.48 0-14.9 10.45-33 23.34-40.44 12.9-7.44 23.35-1.4 23.35 13.48 0 14.89-10.46 32.99-23.35 40.44Z" opacity=".65"/>
  <path fill="#0d6efd" d="M288.99 87.24a6.36 6.36 0 0 1 1.7-3.45l6.97-6.41a4.23 4.23 0 0 0 1.17-3.44l-1.3-7.6c-.1-.52-.34-.87-.67-1.06l-8.26-4.77v.01c-.39-.23-.9-.21-1.44.14l-3 1.97 2.9-7.83a1.72 1.72 0 0 0-.8-2.16l.04-.03-8.27-4.77v.01c-.17-.1-.35-.17-.55-.22l-5.25-1.17a2.85 2.85 0 0 0-2.98 1.38l-4.94 9.4a4.89 4.89 0 0 1-1.96 1.82l-.23-.75a1.53 1.53 0 0 0-.66-.91v-.01l-8.3-4.79.01.01c-.44-.26-1.01-.2-1.55.22L243.75 59a4.4 4.4 0 0 0-1.5 3.34l.47 7.49a5.93 5.93 0 0 1-1.22 3.62 62.52 62.52 0 0 0-3.66 4.84 4.06 4.06 0 0 1-3.2 1.62l-5.06-.25a3.25 3.25 0 0 0-2.9 1.79l-4.76 10.66c-.42.95-.06 2.04.81 2.56v.01l5.6 3.24c.19.45.25.96.14 1.45a47.56 47.56 0 0 0-.88 5.08 6.36 6.36 0 0 1-1.7 3.46l-6.98 6.4a4.22 4.22 0 0 0-1.17 3.44l1.31 7.6c.09.5.32.85.63 1.04l8.3 4.8v-.01c.4.23.9.2 1.43-.14l3-1.97-2.9 7.82c-.31.86 0 1.7.7 2.14l8.3 4.8v-.03c.18.11.37.21.59.26l5.25 1.18a2.85 2.85 0 0 0 2.97-1.38l4.94-9.4a4.89 4.89 0 0 1 1.97-1.83l.23.76c.13.44.37.74.67.92l8.22 4.74.1.06c.44.22.99.17 1.5-.24l7.88-6.19a4.4 4.4 0 0 0 1.5-3.34l-.48-7.48a5.92 5.92 0 0 1 1.23-3.63 62.3 62.3 0 0 0 3.65-4.83 4.06 4.06 0 0 1 3.2-1.63l5.06.25a3.25 3.25 0 0 0 2.9-1.78l4.76-10.66c.47-1.05 0-2.25-1.06-2.7l-4.08-1.74a2.53 2.53 0 0 1-1.4-2.82c.4-1.72.69-3.42.88-5.09Zm-42 23.14c-1.54-8.95 4.12-21.65 12.65-28.36 3.15-2.47 6.24-3.77 8.97-4 .43.94.76 2.02.98 3.3 1.55 8.96-4.12 21.66-12.65 28.36-3.13 2.46-6.2 3.76-8.93 4-.45-.97-.8-2.06-1.02-3.3Z"/>
  <path fill="#fff" d="M288.99 87.24a6.36 6.36 0 0 1 1.7-3.45l6.97-6.41a4.23 4.23 0 0 0 1.17-3.44l-1.3-7.6c-.1-.52-.34-.87-.67-1.06l-8.26-4.77v.01c-.39-.23-.9-.21-1.44.14l-3 1.97 2.9-7.83a1.72 1.72 0 0 0-.8-2.16l.04-.03-8.27-4.77v.01c-.17-.1-.35-.17-.55-.22l-5.25-1.17a2.85 2.85 0 0 0-2.98 1.38l-4.94 9.4a4.89 4.89 0 0 1-1.96 1.82l-.23-.75a1.53 1.53 0 0 0-.66-.91v-.01l-8.3-4.79.01.01c-.44-.26-1.01-.2-1.55.22L243.75 59a4.4 4.4 0 0 0-1.5 3.34l.47 7.49a5.93 5.93 0 0 1-1.22 3.62 62.52 62.52 0 0 0-3.66 4.84 4.06 4.06 0 0 1-3.2 1.62l-5.06-.25a3.25 3.25 0 0 0-2.9 1.79l-4.76 10.66c-.42.95-.06 2.04.81 2.56v.01l5.6 3.24c.19.45.25.96.14 1.45a47.56 47.56 0 0 0-.88 5.08 6.36 6.36 0 0 1-1.7 3.46l-6.98 6.4a4.22 4.22 0 0 0-1.17 3.44l1.31 7.6c.09.5.32.85.63 1.04l8.3 4.8v-.01c.4.23.9.2 1.43-.14l3-1.97-2.9 7.82c-.31.86 0 1.7.7 2.14l8.3 4.8v-.03c.18.11.37.21.59.26l5.25 1.18a2.85 2.85 0 0 0 2.97-1.38l4.94-9.4a4.89 4.89 0 0 1 1.97-1.83l.23.76c.13.44.37.74.67.92l8.22 4.74.1.06c.44.22.99.17 1.5-.24l7.88-6.19a4.4 4.4 0 0 0 1.5-3.34l-.48-7.48a5.92 5.92 0 0 1 1.23-3.63 62.3 62.3 0 0 0 3.65-4.83 4.06 4.06 0 0 1 3.2-1.63l5.06.25a3.25 3.25 0 0 0 2.9-1.78l4.76-10.66c.47-1.05 0-2.25-1.06-2.7l-4.08-1.74a2.53 2.53 0 0 1-1.4-2.82c.4-1.72.69-3.42.88-5.09Zm-42 23.14c-1.54-8.95 4.12-21.65 12.65-28.36 3.15-2.47 6.24-3.77 8.97-4 .43.94.76 2.02.98 3.3 1.55 8.96-4.12 21.66-12.65 28.36-3.13 2.46-6.2 3.76-8.93 4-.45-.97-.8-2.06-1.02-3.3Z" opacity=".4"/>
  <path fill="#000" d="M239.18 127.1c-.65-.94-1.83-1.27-2.8-.63l-3.97 2.61-2.9 7.83c-.3.85 0 1.7.7 2.13l8.2 4.73c-.64-.44-.9-1.25-.61-2.08l3.56-9.62c.39-1.05-.04-2.48-.81-3.31-.49-.5-.95-1.06-1.37-1.66Zm24.23 11.99c-.3-.16-.54-.47-.67-.91l-1.77-5.9c-.33-1.09-1.43-1.56-2.49-1.14-1.09.46-2.17.82-3.23 1.07-.32.08-.68.23-1.02.43l.22.76c.15.44.4.75.69.91v.02l8.27 4.76Z" opacity=".1"/>
  <path fill="#0d6efd" d="M236.1 79.61c-.5.2-1 .34-1.45.3l-5.07-.23c-.71-.04-1.5.26-2.1.76l8.3 4.78c.6-.5 1.37-.8 2.09-.77l5.07.25c.45.03.95-.09 1.44-.28l-8.28-4.8Zm17.07-27c-.44-.26-1-.21-1.54.21l-7.88 6.19a4.34 4.34 0 0 0-1.3 2.06l8.28 4.78c.25-.81.72-1.6 1.3-2.06l7.86-6.18c.56-.42 1.13-.48 1.56-.2v-.02l-8.28-4.78Zm-27.36 55.38-6.89 6.34a4.06 4.06 0 0 0-1.07 1.98l8.27 4.76c.18-.76.59-1.5 1.09-1.96l6.89-6.32-8.29-4.8Zm52.22-60.14a1.5 1.5 0 0 0-.55-.21l-5.25-1.19a2.87 2.87 0 0 0-2.98 1.38l-4.94 9.41c-.24.45-.65.9-1.12 1.27l8.29 4.77c.47-.37.88-.81 1.12-1.26l4.94-9.41c.52-1 1.85-1.62 2.97-1.38l5.25 1.19c.2.04.37.1.53.19l-8.26-4.76Zm10.57 12.66v.01c-.39-.23-.9-.21-1.44.13l-3 1.98-.66 1.77c-.39 1.08.04 2.5.83 3.33.49.5.93 1.06 1.35 1.66.11.15.23.28.36.4l.3.24a2 2 0 0 0 2.14 0l6.96-4.58c.18-.12.36-.2.52-.25.22-.06.41-.08.59-.03.11.02.23.05.32.1l-8.27-4.76Z"/>
  <path fill="#fff" d="M236.1 79.61c-.5.2-1 .34-1.45.3l-5.07-.23c-.71-.04-1.5.26-2.1.76l8.3 4.78c.6-.5 1.37-.8 2.09-.77l5.07.25c.45.03.95-.09 1.44-.28l-8.28-4.8Zm17.07-27c-.44-.26-1-.21-1.54.21l-7.88 6.19a4.34 4.34 0 0 0-1.3 2.06l8.28 4.78c.25-.81.72-1.6 1.3-2.06l7.86-6.18c.56-.42 1.13-.48 1.56-.2v-.02l-8.28-4.78Zm-27.36 55.38-6.89 6.34a4.06 4.06 0 0 0-1.07 1.98l8.27 4.76c.18-.76.59-1.5 1.09-1.96l6.89-6.32-8.29-4.8Zm52.22-60.14a1.5 1.5 0 0 0-.55-.21l-5.25-1.19a2.87 2.87 0 0 0-2.98 1.38l-4.94 9.41c-.24.45-.65.9-1.12 1.27l8.29 4.77c.47-.37.88-.81 1.12-1.26l4.94-9.41c.52-1 1.85-1.62 2.97-1.38l5.25 1.19c.2.04.37.1.53.19l-8.26-4.76Zm10.57 12.66v.01c-.39-.23-.9-.21-1.44.13l-3 1.98-.66 1.77c-.39 1.08.04 2.5.83 3.33.49.5.93 1.06 1.35 1.66.11.15.23.28.36.4l.3.24a2 2 0 0 0 2.14 0l6.96-4.58c.18-.12.36-.2.52-.25.22-.06.41-.08.59-.03.11.02.23.05.32.1l-8.27-4.76Z" opacity=".8"/>
  <path fill="#0d6efd" d="m298.83 73.94-1.3-7.6c-.2-1.13-1.13-1.53-2.08-.9l-6.97 4.58c-.95.63-2.14.3-2.8-.63a14.3 14.3 0 0 0-1.35-1.66c-.8-.83-1.21-2.25-.82-3.32l3.55-9.61a1.76 1.76 0 0 0-1.3-2.39l-5.25-1.17a2.84 2.84 0 0 0-2.97 1.38l-4.94 9.4a5.17 5.17 0 0 1-2.98 2.25c-1.06.27-2.14.62-3.24 1.07-1.06.43-2.15-.05-2.48-1.14l-1.77-5.9c-.33-1.08-1.33-1.4-2.23-.7l-7.86 6.2a4.4 4.4 0 0 0-1.5 3.33l.47 7.49a5.91 5.91 0 0 1-1.23 3.62 62.52 62.52 0 0 0-3.65 4.84 4.06 4.06 0 0 1-3.2 1.62l-5.06-.25a3.25 3.25 0 0 0-2.9 1.79L230.2 96.9a2.02 2.02 0 0 0 1.06 2.7l4.08 1.74a2.53 2.53 0 0 1 1.4 2.82 47.36 47.36 0 0 0-.87 5.08 6.36 6.36 0 0 1-1.7 3.46l-6.98 6.41a4.22 4.22 0 0 0-1.17 3.44l1.31 7.6c.2 1.12 1.12 1.53 2.08.9l6.97-4.59c.95-.62 2.14-.3 2.8.64.41.6.87 1.15 1.35 1.66.78.83 1.21 2.25.81 3.32l-3.55 9.6a1.76 1.76 0 0 0 1.3 2.4l5.25 1.17a2.84 2.84 0 0 0 2.98-1.38l4.94-9.4a5.18 5.18 0 0 1 2.98-2.25c1.06-.27 2.14-.63 3.23-1.07 1.06-.43 2.16.04 2.49 1.14l1.77 5.89c.33 1.1 1.32 1.4 2.22.7l7.87-6.19c.9-.7 1.57-2.2 1.5-3.33l-.47-7.49a5.93 5.93 0 0 1 1.22-3.62 62.26 62.26 0 0 0 3.66-4.84 4.06 4.06 0 0 1 3.2-1.62l5.06.25a3.25 3.25 0 0 0 2.9-1.79l4.76-10.66c.46-1.04-.01-2.25-1.06-2.7l-4.09-1.74a2.53 2.53 0 0 1-1.4-2.82c.39-1.71.68-3.41.87-5.09a6.36 6.36 0 0 1 1.7-3.45l6.98-6.41a4.23 4.23 0 0 0 1.17-3.44Zm-33.6 40.52c-8.53 6.7-16.7 4.88-18.24-4.08-1.54-8.95 4.12-21.65 12.65-28.36 8.53-6.7 16.7-4.88 18.24 4.08 1.54 8.96-4.12 21.66-12.65 28.36Z"/>
  <path fill="#fff" d="m298.83 73.94-1.3-7.6c-.2-1.13-1.13-1.53-2.08-.9l-6.97 4.58c-.95.63-2.14.3-2.8-.63a14.3 14.3 0 0 0-1.35-1.66c-.8-.83-1.21-2.25-.82-3.32l3.55-9.61a1.76 1.76 0 0 0-1.3-2.39l-5.25-1.17a2.84 2.84 0 0 0-2.97 1.38l-4.94 9.4a5.17 5.17 0 0 1-2.98 2.25c-1.06.27-2.14.62-3.24 1.07-1.06.43-2.15-.05-2.48-1.14l-1.77-5.9c-.33-1.08-1.33-1.4-2.23-.7l-7.86 6.2a4.4 4.4 0 0 0-1.5 3.33l.47 7.49a5.91 5.91 0 0 1-1.23 3.62 62.52 62.52 0 0 0-3.65 4.84 4.06 4.06 0 0 1-3.2 1.62l-5.06-.25a3.25 3.25 0 0 0-2.9 1.79L230.2 96.9a2.02 2.02 0 0 0 1.06 2.7l4.08 1.74a2.53 2.53 0 0 1 1.4 2.82 47.36 47.36 0 0 0-.87 5.08 6.36 6.36 0 0 1-1.7 3.46l-6.98 6.41a4.22 4.22 0 0 0-1.17 3.44l1.31 7.6c.2 1.12 1.12 1.53 2.08.9l6.97-4.59c.95-.62 2.14-.3 2.8.64.41.6.87 1.15 1.35 1.66.78.83 1.21 2.25.81 3.32l-3.55 9.6a1.76 1.76 0 0 0 1.3 2.4l5.25 1.17a2.84 2.84 0 0 0 2.98-1.38l4.94-9.4a5.18 5.18 0 0 1 2.98-2.25c1.06-.27 2.14-.63 3.23-1.07 1.06-.43 2.16.04 2.49 1.14l1.77 5.89c.33 1.1 1.32 1.4 2.22.7l7.87-6.19c.9-.7 1.57-2.2 1.5-3.33l-.47-7.49a5.93 5.93 0 0 1 1.22-3.62 62.26 62.26 0 0 0 3.66-4.84 4.06 4.06 0 0 1 3.2-1.62l5.06.25a3.25 3.25 0 0 0 2.9-1.79l4.76-10.66c.46-1.04-.01-2.25-1.06-2.7l-4.09-1.74a2.53 2.53 0 0 1-1.4-2.82c.39-1.71.68-3.41.87-5.09a6.36 6.36 0 0 1 1.7-3.45l6.98-6.41a4.23 4.23 0 0 0 1.17-3.44Zm-33.6 40.52c-8.53 6.7-16.7 4.88-18.24-4.08-1.54-8.95 4.12-21.65 12.65-28.36 8.53-6.7 16.7-4.88 18.24 4.08 1.54 8.96-4.12 21.66-12.65 28.36Z" opacity=".65"/>
  <path fill="#E0E0E0" d="M375.18 281.5c14.6 0 26.44-6.84 26.44-15.27 0-8.44-11.83-15.27-26.44-15.27-14.6 0-26.44 6.83-26.44 15.27 0 8.43 11.84 15.26 26.44 15.26Z"/>
  <path fill="#0d6efd" d="M357.17 219.38c10.09-3.84 26.24-4.02 36.08-.4 9.83 3.63 9.9 9.68.15 13.52-9.76 3.84-25.9 4.01-36.08.4-10.17-3.63-10.24-9.67-.15-13.52Z"/>
  <path fill="#000" d="M357.17 219.38c10.09-3.84 26.24-4.02 36.08-.4 9.83 3.63 9.9 9.68.15 13.52-9.76 3.84-25.9 4.01-36.08.4-10.17-3.63-10.24-9.67-.15-13.52Z" opacity=".3"/>
  <path fill="#FAFAFA" d="M375.4 275.02c-5.65 0-10.99-1.1-15.03-3.1-3.66-1.8-5.8-4.16-6.04-6.65l-.05-.5h-.04l-5.41-61.97 52.7.07-5.4 61.93-.1.47c-.22 2.5-2.3 4.86-5.82 6.66-3.91 1.99-9.17 3.09-14.81 3.09Z"/>
  <path fill="#E6E6E6" d="m349.43 203.35 51.5.07-5.3 60.8h-.05l-.1 1c-.2 2.3-2.17 4.5-5.52 6.22-3.84 1.95-9 3.03-14.56 3.03-5.57 0-10.82-1.08-14.8-3.04-3.47-1.72-5.5-3.92-5.72-6.21l-.13-.86-5.32-61Zm-1.2-1.1 5.5 63.07h.05c.25 2.58 2.35 5.13 6.34 7.1 4.26 2.1 9.78 3.15 15.27 3.15 5.5 0 10.95-1.05 15.06-3.15 3.87-1.97 5.9-4.52 6.13-7.1h.05l5.5-63-53.9-.07Z"/>
  <path fill="#0d6efd" d="m346.83 207.55-.97-10.78h6.84c.78-.49 1.63-.96 2.57-1.41 11.26-5.36 29.21-5.36 40.1 0 .9.44 1.7.92 2.46 1.41h6.67l-.97 10.78c0 3.52-2.72 7.03-8.16 9.71-10.89 5.36-28.84 5.36-40.1 0-5.62-2.68-8.44-6.2-8.44-9.7Z"/>
  <g opacity=".2">
    <path fill="#000" d="m346.83 207.55-.97-10.78h6.84c.78-.49 1.63-.96 2.57-1.41 11.26-5.36 29.21-5.36 40.1 0 .9.44 1.7.92 2.46 1.41h6.67l-.97 10.78c0 3.52-2.72 7.03-8.16 9.71-10.89 5.36-28.84 5.36-40.1 0-5.62-2.68-8.44-6.2-8.44-9.7Z"/>
  </g>
  <path fill="#0d6efd" d="M354.6 186.73c11.64-5.54 30.2-5.54 41.46 0 11.26 5.55 11.26 14.53 0 20.08-11.26 5.54-29.82 5.54-41.47 0-11.64-5.55-11.64-14.53 0-20.08ZM400.66 225.8l-.06 1.03-.04.8-1.62 21.05c-.02 1.44-.97 2.86-2.85 4.15l-.5.32c-.86.5-1.85.98-3 1.43-4.44 1.74-10.26 2.69-16.18 2.82h-2.5c-5.54-.1-11-.9-15.3-2.44a20.03 20.03 0 0 1-3.88-1.8l-.5-.33c-1.89-1.28-2.84-2.7-2.86-4.15l-1.62-21.06-.07-.91.03.12c.4 2.23 2.94 4.4 7.6 6.07 5 1.77 11.44 2.63 17.85 2.6 6.65-.05 13.27-1.05 18.23-3 4.8-1.9 7.21-4.3 7.27-6.7Z"/>
  <path fill="#fff" d="m400.66 225.8-.06 1.03-.04.8-1.62 21.05c-.02 1.44-.97 2.86-2.85 4.15l-.5.32c-.86.5-1.85.98-3 1.43-4.44 1.74-10.26 2.69-16.18 2.82h-2.5c-5.54-.1-11-.9-15.3-2.44a20.03 20.03 0 0 1-3.88-1.8l-.5-.33c-1.89-1.28-2.84-2.7-2.86-4.15l-1.62-21.06-.07-.91.03.12c.4 2.23 2.94 4.4 7.6 6.07 5 1.77 11.44 2.63 17.85 2.6 6.65-.05 13.27-1.05 18.23-3 4.8-1.9 7.21-4.3 7.27-6.7Z" opacity=".35"/>
  <path fill="#37474f" d="M383.59 249.65c.85-1.16 1.3-2.59 1.98-3.84a11.3 11.3 0 0 1 5.82-5.24c.34-.14.76 0 .92.32 1.3 2.59.56 6.24-2.05 8.91-2.6 2.65-6.19 3.5-8.8 2.3-.15-.06-.2-.35-.07-.42a7.34 7.34 0 0 0 2.2-2.03ZM389.98 239.87a12.48 12.48 0 0 0-3.69 2.32c-1.13 1.02-2 2.31-2.64 3.7-.96 2.1-1.89 3.42-3.32 4.51-.31.24-.8.18-1.02-.14-1.75-2.6-1.11-6.61 1.7-9.5 2.68-2.73 6.42-3.54 9.05-2.18.52.27.47 1.07-.08 1.29Z"/>
  <path fill="#0d6efd" d="M351.43 194.55h-.02l1.76-8.81 14.77-.16c4.8-.74 9.94-.8 14.7-.17l14.33-.15 1.97 8.76h-.03c.96 3.18-1.2 6.55-6.57 9.07-9.16 4.28-24.34 4.45-33.9.37-5.61-2.4-7.94-5.71-7.01-8.91Z"/>
  <path fill="#000" d="M351.43 194.55h-.02l1.76-8.81 14.77-.16c4.8-.74 9.94-.8 14.7-.17l14.33-.15 1.97 8.76h-.03c.96 3.18-1.2 6.55-6.57 9.07-9.16 4.28-24.34 4.45-33.9.37-5.61-2.4-7.94-5.71-7.01-8.91Z" opacity=".2"/>
  <path fill="#0d6efd" d="M359.55 180.05c8.7-3.74 22.64-3.89 31.14-.34 8.49 3.55 8.55 9.46.14 13.2-8.41 3.73-22.35 3.88-31.14.34-8.78-3.55-8.85-9.46-.14-13.2Z"/>
  <path fill="#0d6efd" d="M356.1 186.7c.01.14.24.6.97 1.24a13.5 13.5 0 0 0 3.62 2.04c3.87 1.55 9.22 2.43 14.67 2.37 5.45-.06 10.69-1.04 14.38-2.68a12.1 12.1 0 0 0 3.44-2.13c.7-.67.9-1.16.9-1.28 0-.24-.78-1.78-4.41-3.3-3.73-1.55-9-2.41-14.44-2.35-5.45.06-10.78 1.04-14.62 2.7-3.62 1.54-4.5 3.08-4.52 3.39Z"/>
  <g opacity=".5">
    <path fill="#000" d="M356.1 186.7c.01.14.24.6.97 1.24a13.5 13.5 0 0 0 3.62 2.04c3.87 1.55 9.22 2.43 14.67 2.37 5.45-.06 10.69-1.04 14.38-2.68a12.1 12.1 0 0 0 3.44-2.13c.7-.67.9-1.16.9-1.28 0-.24-.78-1.78-4.41-3.3-3.73-1.55-9-2.41-14.44-2.35-5.45.06-10.78 1.04-14.62 2.7-3.62 1.54-4.5 3.08-4.52 3.39Z"/>
  </g>
  <path fill="#0d6efd" d="M357.07 187.94a13.5 13.5 0 0 0 3.62 2.04c3.87 1.55 9.22 2.43 14.67 2.37 5.45-.06 10.69-1.04 14.38-2.68a12.13 12.13 0 0 0 3.44-2.13 12.07 12.07 0 0 0-3.49-2.06c-3.72-1.56-8.98-2.42-14.43-2.36-5.45.06-10.78 1.04-14.62 2.7a13.1 13.1 0 0 0-3.56 2.12Z"/>
  <g opacity=".2">
    <path fill="#000" d="M357.07 187.94a13.5 13.5 0 0 0 3.62 2.04c3.87 1.55 9.22 2.43 14.67 2.37 5.45-.06 10.69-1.04 14.38-2.68a12.13 12.13 0 0 0 3.44-2.13 12.07 12.07 0 0 0-3.49-2.06c-3.72-1.56-8.98-2.42-14.43-2.36-5.45.06-10.78 1.04-14.62 2.7a13.1 13.1 0 0 0-3.56 2.12Z"/>
  </g>
  <g opacity=".5">
    <path fill="#000" d="M365.84 188.07c-1.28-.82-2.84-1.14-3.47-.72-.63.42-.1 1.42 1.18 2.25 1.28.82 2.83 1.14 3.47.71.63-.42.1-1.43-1.18-2.24Z"/>
  </g>
  <path fill="#E0E0E0" d="m144.04 366.96 107.17 61.85a9.73 9.73 0 0 0 8.8 0l159.46-92.07c2.43-1.4 2.43-3.68 0-5.08L312.3 269.8a9.74 9.74 0 0 0-8.8 0l-159.47 92.07c-2.43 1.4-2.43 3.68 0 5.08Z"/>
  <path fill="#0d6efd" d="M152.57 362.66c0 2.48 1.86 4.08 4.15 5.4l94.12 54.34a9.19 9.19 0 0 0 8.31 0l151.83-87.66c2.3-1.32 4.16-3.03 4.16-5.52 0-2.49-1.86-4.02-4.16-5.35l-94.11-54.34a9.19 9.19 0 0 0-8.32 0L156.72 357.2c-2.3 1.33-4.15 2.98-4.15 5.47Z"/>
  <path fill="#fff" d="M152.57 362.66c0 2.48 1.86 4.08 4.15 5.4l94.12 54.34a9.19 9.19 0 0 0 8.31 0l151.83-87.66c2.3-1.32 4.16-3.03 4.16-5.52 0-2.49-1.86-4.02-4.16-5.35l-94.11-54.34a9.19 9.19 0 0 0-8.32 0L156.72 357.2c-2.3 1.33-4.15 2.98-4.15 5.47Z" opacity=".4"/>
  <path fill="#0d6efd" d="m156.72 362 94.12 54.33a9.2 9.2 0 0 0 8.31 0L411 328.67c2.3-1.32 2.3-3.47 0-4.8l-94.12-54.34a9.19 9.19 0 0 0-8.32 0L156.72 357.2c-2.3 1.33-2.3 3.48 0 4.8Z"/>
  <path fill="#fff" d="m156.72 362 94.12 54.33a9.2 9.2 0 0 0 8.31 0L411 328.67c2.3-1.32 2.3-3.47 0-4.8l-94.12-54.34a9.19 9.19 0 0 0-8.32 0L156.72 357.2c-2.3 1.33-2.3 3.48 0 4.8Z" opacity=".85"/>
  <path fill="#0d6efd" d="M255 417.33v6.06c-1.5 0-3.01-.32-4.16-.99l-94.12-54.33c-2.3-1.33-4.15-2.93-4.15-5.41 0-2.34 1.67-3.96 3.83-5.28-1.78 1.26-1.82 3.38.32 4.62l94.12 54.34a8.5 8.5 0 0 0 4.16 1ZM169.57 357.9l139.52-80.55a4.33 4.33 0 0 1 3.92 0l5.09 2.85c1.08.62 1.08 1.63 0 2.26L178.55 363a4.34 4.34 0 0 1-3.92 0l-5.06-2.84c-1.09-.62-1.09-1.64 0-2.26Z"/>
  <path fill="#fff" d="m169.57 357.9 139.52-80.55a4.33 4.33 0 0 1 3.92 0l5.09 2.85c1.08.62 1.08 1.63 0 2.26L178.55 363a4.34 4.34 0 0 1-3.92 0l-5.06-2.84c-1.09-.62-1.09-1.64 0-2.26Z" opacity=".7"/>
  <path fill="#0d6efd" d="m183.27 365.98 139.52-80.56c1.08-.62 2.69-.7 3.58-.19l36.32 20.97c.9.52.75 1.44-.34 2.07L223 388.7c-1.08.63-2.69.72-3.59.2l-36.47-20.87c-.9-.51-.75-1.43.34-2.06Z"/>
  <path fill="#fff" d="m183.27 365.98 139.52-80.56c1.08-.62 2.69-.7 3.58-.19l36.32 20.97c.9.52.75 1.44-.34 2.07L223 388.7c-1.08.63-2.69.72-3.59.2l-36.47-20.87c-.9-.51-.75-1.43.34-2.06Z" opacity=".4"/>
  <path fill="#FAFAFA" d="m304.17 319.26 4.37-2.52c.18-.1.2-.27.03-.37l-4.18-2.41a.7.7 0 0 0-.63.02l-4.37 2.52c-.18.1-.2.27-.04.37l4.18 2.41c.17.1.45.09.64-.02Zm-6.38-8.73-4.37 2.53c-.19.1-.2.27-.04.36l4.18 2.41c.17.1.45.09.64-.02l4.37-2.52c.18-.1.2-.27.03-.36l-4.18-2.42c-.16-.1-.45-.08-.63.02Zm-14.12 8.15-7.39 4.27c-.18.1-.2.27-.04.37l4.18 2.4c.17.1.45.1.64-.01l7.4-4.27c.18-.1.2-.27.03-.37l-4.18-2.41a.71.71 0 0 0-.63.02Zm7.73-4.46-4.36 2.52c-.19.1-.2.27-.04.37l4.18 2.41c.16.1.45.08.63-.02l4.37-2.52c.19-.11.2-.28.04-.37l-4.18-2.42a.7.7 0 0 0-.64.03Zm-17.13 9.9-4.37 2.52c-.19.1-.2.27-.04.36l4.18 2.42c.16.1.45.08.63-.02l4.37-2.53c.19-.1.2-.27.04-.36l-4.18-2.42c-.16-.1-.45-.08-.63.02Zm-6.39 3.68-4.37 2.52c-.18.1-.2.27-.03.37l4.17 2.41c.17.1.45.09.64-.02l4.37-2.52c.18-.1.2-.27.03-.37l-4.18-2.41c-.16-.1-.44-.09-.63.02Zm16.38 9.85 4.37-2.53c.19-.1.2-.27.04-.36l-4.18-2.41c-.17-.1-.45-.09-.63.02l-4.37 2.52c-.19.1-.2.27-.04.37l4.18 2.4c.16.1.45.1.63-.01Zm-6.38 3.68 4.37-2.52c.18-.1.2-.27.03-.37l-4.17-2.4a.7.7 0 0 0-.64.01l-4.37 2.52c-.18.11-.2.28-.04.37l4.18 2.41c.17.1.45.09.64-.02Zm-6.39 3.69 4.37-2.52c.19-.11.2-.28.04-.37l-4.18-2.41c-.16-.1-.45-.09-.63.02l-4.37 2.52c-.19.1-.2.27-.04.37l4.18 2.41c.16.1.45.08.63-.02Zm-6.38 3.69 4.37-2.53c.18-.1.2-.27.03-.36l-4.17-2.42a.7.7 0 0 0-.64.03l-4.37 2.52c-.18.1-.2.27-.03.36l4.17 2.42c.17.1.45.08.64-.03Zm32.67-25.76 4.37-2.52c.19-.11.2-.28.04-.37l-4.18-2.42a.7.7 0 0 0-.63.03l-4.37 2.52c-.19.1-.2.27-.04.37l4.18 2.4c.16.1.45.1.63-.01Zm-7.13 11.01 9.74-5.63c.19-.1.2-.27.04-.36l-10.15-5.86c-.16-.1-.45-.09-.63.02l-5.04 2.9c-.19.12-.2.28-.04.38l5.37 3.1c.17.1.15.26-.03.36l-4.04 2.33c-.18.11-.2.28-.03.37l4.18 2.41c.16.1.44.09.63-.02Zm-29.15-2.47-4.37 2.52c-.19.1-.2.27-.04.36l4.18 2.42c.17.1.45.08.63-.03l4.37-2.52c.19-.1.2-.27.04-.36l-4.18-2.42a.7.7 0 0 0-.63.03Zm-6.39 3.68-4.37 2.52c-.18.11-.2.28-.03.37l4.17 2.41c.17.1.45.09.64-.02l4.37-2.52c.18-.1.2-.27.04-.37l-4.18-2.41c-.17-.1-.45-.08-.64.02Zm-35.33 39.36c.16.1.45.09.63-.02l4.37-2.52c.19-.11.2-.28.04-.37l-4.18-2.41c-.16-.1-.45-.09-.63.02l-4.37 2.52c-.19.1-.2.27-.04.37l4.18 2.41Zm-15.75-9.87-4.37 2.52c-.18.11-.2.28-.03.37l4.18 2.41c.16.1.45.09.63-.02l4.37-2.52c.19-.1.2-.27.04-.37l-4.18-2.4a.7.7 0 0 0-.64.01Zm8.1 7.4c.16.09.45.08.63-.03l4.37-2.52c.19-.1.2-.27.04-.37l-4.18-2.41c-.16-.1-.45-.09-.63.02l-4.37 2.52c-.19.11-.2.28-.04.37l4.18 2.41Zm17.62 3.96 4.37-2.53c.18-.1.2-.27.03-.36l-4.18-2.42c-.16-.1-.45-.08-.63.03l-4.37 2.52c-.19.1-.2.27-.04.37l4.18 2.4c.17.1.45.1.64-.01Zm-7.02 3.7c.16.1.45.09.63-.02l4.37-2.52c.19-.1.2-.27.04-.37l-4.18-2.4a.7.7 0 0 0-.64.01l-4.36 2.53c-.19.1-.2.27-.04.36l4.18 2.41Zm-12.31-18.74-4.37 2.52c-.19.1-.2.27-.04.37l4.18 2.4c.17.1.45.1.64-.01l4.36-2.53c.19-.1.2-.27.04-.36l-4.18-2.42a.7.7 0 0 0-.63.03Zm31.92-18.43-4.37 2.52c-.18.1-.2.27-.03.36l4.18 2.42c.16.1.44.08.63-.02l4.37-2.53c.18-.1.2-.27.04-.36l-4.18-2.42a.7.7 0 0 0-.64.03Zm-25.54 14.74-4.37 2.52c-.18.1-.2.27-.03.37l4.17 2.41c.17.1.46.09.64-.02l4.37-2.52c.18-.11.2-.27.04-.37l-4.18-2.41a.7.7 0 0 0-.64.02Zm31.93-18.43-4.37 2.52c-.19.1-.2.27-.04.37l4.18 2.41c.16.1.45.09.63-.02l4.37-2.52c.19-.11.2-.28.04-.37l-4.18-2.42c-.16-.09-.45-.08-.63.03Zm-12.77 7.37-4.37 2.52c-.19.11-.2.27-.04.37l4.18 2.41c.17.1.45.09.64-.02l4.36-2.52c.19-.11.2-.28.04-.37l-4.18-2.41a.72.72 0 0 0-.63.02Zm-6.39 3.69-4.37 2.52c-.18.1-.2.27-.03.37l4.18 2.4c.16.1.44.1.63-.01l4.37-2.52c.18-.11.2-.28.04-.37l-4.18-2.42c-.17-.09-.45-.08-.64.03Zm-6.38 3.68-4.37 2.52c-.19.11-.2.28-.04.37l4.18 2.42c.16.1.45.08.63-.03l4.37-2.52c.19-.1.2-.27.04-.37l-4.18-2.4a.7.7 0 0 0-.63.01Zm29.15 2.48 4.37-2.52c.18-.11.2-.28.04-.37l-4.18-2.41a.7.7 0 0 0-.64.02l-4.37 2.52c-.18.1-.2.27-.03.37l4.17 2.41c.17.1.45.08.64-.02Zm59.56-53.7-4.37 2.52c-.18.11-.2.28-.03.37l4.18 2.42c.16.09.44.08.63-.03l4.37-2.52c.18-.1.2-.27.04-.37l-4.18-2.41a.71.71 0 0 0-.64.02Zm-7.73 4.47-4.37 2.52c-.18.1-.2.27-.03.37l4.18 2.4c.16.1.45.1.63-.01l4.37-2.53c.19-.1.2-.27.04-.36l-4.18-2.42a.7.7 0 0 0-.64.03Zm14.12-8.15-4.37 2.52c-.19.1-.2.27-.04.37l4.18 2.4c.17.1.45.1.63-.01l4.37-2.53c.19-.1.2-.27.04-.36l-4.18-2.41a.71.71 0 0 0-.63.02Zm-35.3 32.78 4.38-2.52c.18-.1.2-.27.03-.37l-4.18-2.41c-.16-.1-.45-.08-.63.02l-4.37 2.52c-.18.11-.2.28-.04.37l4.18 2.42c.17.09.45.08.64-.03ZM325.32 295a.7.7 0 0 0-.64.02l-4.36 2.52c-.19.11-.2.28-.04.37l4.18 2.41c.16.1.45.09.63-.02l4.37-2.52c.19-.1.2-.27.04-.37L325.3 295Zm-66.59 57.4 4.37-2.52c.19-.1.2-.27.04-.37l-4.18-2.41a.7.7 0 0 0-.63.02l-4.37 2.52c-.19.1-.2.27-.04.37l4.18 2.41c.16.1.45.09.63-.02Zm78.3-45.2 4.37-2.53c.19-.1.2-.27.04-.36l-4.18-2.42c-.17-.1-.45-.08-.64.03l-4.37 2.52c-.18.1-.2.27-.03.37l4.18 2.4c.16.1.45.1.63-.01Zm-12.35.24 4.37-2.53c.18-.1.2-.27.03-.36l-4.18-2.42a.7.7 0 0 0-.63.02l-4.37 2.53c-.18.1-.2.27-.04.36l4.18 2.42c.17.1.45.08.64-.02Zm6.6-9c-.16-.09-.44-.08-.63.03l-4.37 2.52c-.18.1-.2.27-.03.37l4.18 2.41c.16.1.45.09.63-.02l4.37-2.52c.19-.11.2-.28.04-.37l-4.18-2.41Zm1.35-.77 10.15 5.86c.17.1.45.09.64-.02l4.36-2.52c.19-.11.2-.28.04-.37l-10.15-5.86c-.16-.1-.45-.08-.63.02l-4.37 2.52c-.19.11-.2.28-.04.37Zm-14.75 8.17-4.37 2.52c-.18.11-.2.27-.03.37l4.18 2.41c.16.1.45.09.63-.02l4.37-2.52c.19-.1.2-.27.04-.37l-4.18-2.41a.7.7 0 0 0-.64.02Zm-48.05 27.75-4.37 2.52c-.18.1-.2.27-.04.36l4.18 2.42c.17.1.45.08.64-.02l4.37-2.53c.18-.1.2-.27.03-.36l-4.18-2.42a.7.7 0 0 0-.63.02ZM330 310.88c.17.1.45.09.64-.02l4.37-2.52c.18-.1.2-.27.03-.37l-4.18-2.41a.7.7 0 0 0-.63.02l-4.37 2.52c-.18.1-.2.27-.04.37l4.18 2.41Zm-53.8 19-4.36 2.52c-.19.1-.2.27-.04.37l4.18 2.41c.16.1.45.09.63-.02l4.37-2.52c.19-.11.2-.27.04-.37l-4.18-2.41a.7.7 0 0 0-.63.02Zm-50.03 40.95c.16.1.45.09.63-.02l4.37-2.52c.18-.1.2-.27.04-.37l-4.18-2.41a.7.7 0 0 0-.64.02l-4.37 2.52c-.18.11-.2.27-.03.37l4.17 2.41Zm-7.43-7.77-4.37 2.52c-.18.1-.2.27-.03.36l4.17 2.42c.17.1.45.08.64-.03l4.37-2.52c.18-.1.2-.27.04-.36l-4.18-2.42a.7.7 0 0 0-.64.03Zm14.44 4.07 4.37-2.53c.19-.1.2-.27.04-.36l-4.18-2.42a.7.7 0 0 0-.63.03l-4.37 2.52c-.19.1-.2.27-.04.37l4.18 2.4c.16.1.45.1.63-.01Zm6.39-3.69 4.37-2.52c.18-.1.2-.27.03-.37l-4.17-2.41a.7.7 0 0 0-.64.02l-4.37 2.52c-.18.1-.2.27-.03.37l4.17 2.41c.17.1.45.09.64-.02Zm6.38-3.69 4.37-2.52c.19-.1.2-.27.04-.37l-4.18-2.4c-.16-.1-.45-.1-.63.01l-4.37 2.53c-.19.1-.2.27-.04.36l4.18 2.42c.17.09.45.08.63-.03Zm-20.82-.38-4.37 2.52c-.19.1-.2.27-.04.37l4.18 2.41c.16.1.45.09.63-.02l4.37-2.52c.19-.11.2-.28.04-.37l-4.18-2.41a.71.71 0 0 0-.63.02Zm6.38-3.69-4.37 2.52c-.18.11-.2.28-.04.37l4.18 2.42c.17.1.45.08.64-.03l4.37-2.52c.18-.1.2-.27.03-.36l-4.17-2.42c-.17-.1-.45-.08-.64.02Zm25.54-14.74-4.37 2.52c-.18.1-.2.27-.04.37l4.18 2.41c.17.1.45.09.64-.02l4.37-2.53c.18-.1.2-.27.03-.36l-4.18-2.41a.7.7 0 0 0-.63.02Zm-6.39 3.68-4.36 2.53c-.19.1-.2.27-.04.36l4.18 2.42c.16.1.45.08.63-.03l4.37-2.52c.19-.1.2-.27.04-.37l-4.18-2.4a.71.71 0 0 0-.64.01Zm12.78-7.37-4.37 2.52c-.19.11-.2.28-.04.37l4.18 2.41c.16.1.45.09.63-.02l4.37-2.52c.19-.1.2-.27.04-.37l-4.18-2.4c-.17-.1-.45-.1-.63.01Zm-25.54 14.75-4.37 2.52c-.19.1-.2.27-.04.37l4.18 2.4c.16.1.45.1.63-.01l4.37-2.52c.19-.11.2-.28.04-.37l-4.18-2.41c-.16-.1-.45-.1-.63.02Zm6.38-3.69-4.37 2.52c-.19.1-.2.27-.04.37l4.18 2.41c.17.1.45.09.64-.02l4.37-2.52c.18-.1.2-.27.03-.37l-4.18-2.41c-.16-.1-.44-.09-.63.02Zm-8.15 24 4.37-2.51c.19-.11.2-.27.04-.37l-4.18-2.41a.7.7 0 0 0-.64.02l-4.37 2.52c-.18.1-.2.27-.03.37l4.18 2.41c.16.1.44.09.63-.02Zm-33.67-1.58-4.18-2.41c-.16-.1-.45-.09-.63.02l-4.37 2.52c-.19.1-.2.27-.04.37l4.18 2.4c.17.1.45.1.64-.01l4.37-2.52c.18-.11.2-.28.03-.37Zm8.33 2.09-4.18-2.41a.7.7 0 0 0-.64.02l-6.72 3.88c-.18.1-.2.27-.04.37l4.18 2.4c.17.1.45.1.64-.01l6.72-3.88c.18-.11.2-.27.04-.37Zm-14.56-6.86-4.18-2.4c-.17-.1-.45-.1-.64.01l-5.38 3.1c-.18.11-.2.28-.03.37l4.18 2.42c.16.1.44.08.63-.03l5.38-3.1c.18-.1.2-.27.03-.37Zm4.12-2.38c.16.1.45.09.63-.02l4.37-2.52c.19-.1.2-.27.04-.37l-4.18-2.4a.7.7 0 0 0-.64.01l-4.36 2.52c-.19.11-.2.28-.04.37l4.18 2.41Zm18.09 11.72-4.18-2.42c-.17-.1-.45-.08-.64.02l-8.4 4.85c-.19.11-.2.28-.04.37l4.18 2.42c.17.09.45.08.64-.03l8.4-4.85c.18-.1.2-.27.04-.37Zm2.94 5.19-4.18-2.41a.7.7 0 0 0-.63.02l-5.38 3.1c-.19.11-.2.27-.04.37l4.18 2.41c.17.1.45.09.64-.02l5.37-3.1c.19-.11.2-.27.04-.37Zm26.44-44.31c.16.1.45.08.63-.02l4.37-2.53c.19-.1.2-.27.04-.36l-4.18-2.42c-.16-.1-.45-.08-.63.03l-4.37 2.52c-.19.1-.2.27-.04.36l4.18 2.42Zm-12.77 7.37c.16.1.45.08.63-.02l4.37-2.53c.19-.1.2-.26.04-.36l-4.18-2.41c-.16-.1-.45-.09-.63.02l-4.37 2.52c-.19.1-.2.27-.04.37l4.18 2.4Zm-28.32 16.35c.17.1.45.08.64-.02l4.36-2.52c.19-.11.2-.28.04-.37l-4.18-2.42a.7.7 0 0 0-.63.03l-4.37 2.52c-.19.1-.2.27-.04.36l4.18 2.42Zm34.7-20.04c.17.1.45.09.64-.02l4.37-2.52c.18-.1.2-.27.03-.37l-4.17-2.41a.7.7 0 0 0-.64.02l-4.37 2.52c-.18.11-.2.28-.04.37l4.18 2.41Zm-12.77 7.38c.17.09.45.08.64-.03l4.37-2.52c.18-.1.2-.27.04-.37l-4.18-2.4a.7.7 0 0 0-.64.01l-4.37 2.53c-.18.1-.2.27-.03.36l4.17 2.42Zm-4.14 33.5a.7.7 0 0 0-.64.03l-6.72 3.88c-.18.1-.2.27-.03.37l4.17 2.4c.17.1.45.1.64-.01l6.72-3.88c.19-.11.2-.28.04-.37l-4.18-2.41Zm-5.02-28.21c.16.1.45.08.63-.03l4.37-2.52c.19-.1.2-.27.04-.37l-4.18-2.4c-.16-.1-.45-.1-.63.01l-4.37 2.52c-.19.11-.2.27-.04.37l4.18 2.42Zm-6.38 3.68c.16.1.44.09.63-.02l4.37-2.52c.18-.1.2-.27.04-.37l-4.18-2.41a.7.7 0 0 0-.64.02l-4.37 2.52c-.18.11-.2.27-.03.37l4.18 2.41Zm129.68-43.76c-.16-.1-.44-.08-.63.03l-10.75 6.2c-.19.11-.2.28-.04.37l4.18 2.41c.16.1.45.09.63-.02l10.76-6.2c.18-.12.2-.28.04-.37l-4.19-2.42Zm-14.11 8.15c-.16-.1-.45-.08-.63.02l-4.37 2.53c-.19.1-.2.27-.04.36l4.18 2.42c.16.1.45.08.63-.02l4.37-2.53c.19-.1.2-.27.04-.36l-4.18-2.42Zm-86.18 48.03 4.37-2.52c.19-.1.2-.27.04-.37l-4.18-2.41c-.16-.1-.45-.08-.63.02l-4.37 2.52c-.19.11-.2.27-.04.37l4.18 2.41c.17.1.45.09.63-.02ZM315.92 328c-.16-.1-.45-.09-.63.02l-4.37 2.52c-.19.1-.2.27-.04.37l4.18 2.41c.16.1.45.08.63-.02l4.37-2.52c.19-.11.2-.28.04-.37l-4.18-2.41Zm33.27-19.21c-.17-.1-.45-.09-.64.02l-4.36 2.52c-.19.1-.2.27-.04.37l4.18 2.41c.16.1.45.09.63-.02l4.37-2.52c.19-.1.2-.27.04-.37l-4.18-2.41Zm10.56-1.27-10.15-5.86c-.16-.1-.45-.09-.63.02l-4.37 2.52c-.19.1-.2.27-.04.37l10.15 5.86c.17.1.45.08.64-.03l4.37-2.52c.18-.1.2-.27.03-.36Zm-67.69 34.25c-.16-.1-.45-.08-.63.02l-5.38 3.1c-.19.11-.2.28-.04.37l4.18 2.42c.17.1.45.08.64-.03l5.37-3.1c.19-.1.2-.27.04-.37l-4.18-2.4Zm16.13-9.31c-.16-.1-.45-.09-.63.02l-6.72 3.88c-.19.1-.2.27-.04.37l4.18 2.4c.16.1.45.1.63-.01l6.72-3.88c.19-.11.2-.28.04-.37l-4.18-2.41Zm-30.91 17.85c-.17-.1-.45-.09-.64.02l-35.95 20.76c-.19.1-.2.27-.04.37l4.18 2.4c.16.1.45.1.63-.01l35.96-20.76c.18-.11.2-.27.03-.37l-4.17-2.41Zm-37.98 21.92c-.16-.1-.45-.08-.63.02l-5.38 3.1c-.18.11-.2.28-.04.37l4.18 2.42c.17.1.45.08.64-.02l5.38-3.1c.18-.12.2-.28.03-.38l-4.18-2.4Zm45.37-26.2c-.17-.09-.45-.08-.64.03l-5.37 3.1c-.19.11-.2.28-.04.37l4.18 2.42c.16.09.45.08.63-.03l5.38-3.1c.19-.1.2-.27.04-.37l-4.18-2.41ZM231.9 376.5c-.16-.1-.45-.09-.63.02l-5.38 3.1c-.19.11-.2.28-.04.37l4.18 2.42c.17.1.45.08.64-.03l5.37-3.1c.19-.1.2-.27.04-.37l-4.18-2.41Zm67.54-39c-.16-.1-.44-.08-.63.02l-5.38 3.1c-.18.12-.2.28-.03.38l4.17 2.4c.17.1.45.1.64-.01l5.38-3.1c.18-.11.2-.28.03-.37l-4.18-2.42Zm22.86-13.19c-.17-.1-.45-.09-.64.02l-4.37 2.52c-.18.11-.2.28-.04.37l4.18 2.41c.17.1.45.09.64-.02l4.37-2.52c.18-.1.2-.27.04-.37l-4.18-2.41Zm14.3-9.98 4.37-2.52c.18-.11.2-.27.03-.37l-4.18-2.41a.7.7 0 0 0-.63.02l-4.37 2.52c-.18.1-.2.27-.04.37l4.18 2.41c.17.1.45.09.64-.02Zm-26.06 1.25 4.37-2.52c.19-.1.2-.27.04-.37l-4.18-2.4c-.17-.1-.45-.1-.64.01l-4.37 2.52c-.18.11-.2.28-.03.37l4.18 2.41c.16.1.45.09.63-.02Zm-16.96 23.58 12.77-7.37c.19-.1.2-.27.04-.37l-4.18-2.41a.7.7 0 0 0-.63.02l-12.77 7.37c-.19.11-.2.28-.04.37l4.18 2.41c.16.1.45.09.63-.02Zm36-21.12c.16.1.45.08.63-.02l4.37-2.53c.19-.1.2-.27.04-.36l-4.18-2.42c-.16-.1-.45-.08-.63.02l-4.37 2.53c-.19.1-.2.27-.04.36l4.18 2.42Zm-5.34-3.47 4.37-2.52c.19-.11.2-.28.04-.37l-4.18-2.41a.7.7 0 0 0-.64.02l-4.36 2.52c-.19.1-.2.27-.04.37l4.18 2.4c.16.1.45.1.63-.01Zm-37.04 28.28 4.37-2.52c.18-.1.2-.27.04-.37l-4.18-2.41c-.17-.1-.45-.09-.64.02l-4.37 2.52c-.18.1-.2.27-.03.37l4.18 2.41c.16.1.44.09.63-.02Zm28.26-16.66c.17.09.45.08.64-.03l4.37-2.52c.18-.1.2-.27.03-.37l-4.18-2.4c-.16-.1-.44-.1-.63.01l-4.37 2.52c-.18.11-.2.28-.04.37l4.18 2.42Zm-60.19 35.09 4.37-2.52c.19-.1.2-.27.04-.37l-4.18-2.41c-.16-.1-.45-.09-.63.02l-4.37 2.52c-.19.1-.2.27-.04.37l4.18 2.41c.16.1.45.09.63-.02Zm6.39-3.69 4.37-2.52c.18-.1.2-.27.04-.37l-4.18-2.4c-.17-.1-.45-.1-.64.01l-4.37 2.53c-.18.1-.2.27-.03.36l4.18 2.42c.16.09.44.08.63-.03Zm-12.77 7.38 4.37-2.52c.18-.11.2-.28.04-.37l-4.18-2.41a.7.7 0 0 0-.64.02l-4.37 2.52c-.18.1-.2.27-.03.37l4.17 2.41c.17.1.46.08.64-.02Zm25.54-14.75 4.37-2.52c.18-.1.2-.27.04-.37l-4.18-2.41c-.17-.1-.45-.09-.64.02l-4.37 2.52c-.18.11-.2.27-.04.37l4.18 2.41c.17.1.45.09.64-.02Zm-6.38 3.69 4.36-2.52c.19-.11.2-.27.04-.37l-4.18-2.41a.7.7 0 0 0-.63.02l-4.37 2.52c-.19.1-.2.27-.04.37l4.18 2.41c.16.1.45.08.63-.02Zm12.76-7.38 4.37-2.52c.19-.1.2-.27.04-.36l-4.18-2.42a.7.7 0 0 0-.63.02l-4.37 2.53c-.19.1-.2.27-.04.36l4.18 2.42c.17.1.45.08.63-.03Zm34.85-51.27c.16.09.44.08.63-.03l4.37-2.52c.18-.1.2-.27.04-.37l-1.12-.64c-.16-.1-.44-.08-.63.02l-4.37 2.53c-.19.1-.2.27-.04.36l1.12.64Zm-31.74 20.09c.17.1.45.08.64-.02l4.37-2.53c.18-.1.2-.27.03-.36l-4.18-2.41a.7.7 0 0 0-.63.02l-4.37 2.52c-.19.1-.2.27-.04.37l4.18 2.4Zm12.77-7.38c.17.1.45.09.64-.02l4.36-2.52c.19-.1.2-.27.04-.37l-4.18-2.41c-.16-.1-.45-.08-.63.02l-4.37 2.52c-.19.11-.2.27-.04.37l4.18 2.41Zm-20.56 11.88c.16.1.44.08.63-.02l4.37-2.53c.18-.1.2-.27.04-.36L277 314.5a.7.7 0 0 0-.64.03l-4.37 2.52c-.18.1-.2.27-.03.37l4.18 2.4Zm14.18-8.19c.16.1.44.09.63-.02l4.37-2.52c.19-.11.2-.28.04-.37l-4.18-2.41a.7.7 0 0 0-.64.02l-4.37 2.52c-.18.1-.2.27-.04.37l4.19 2.41Zm-26.95 15.56c.16.1.44.09.63-.02l4.37-2.52c.18-.11.2-.28.04-.37l-4.18-2.41a.7.7 0 0 0-.64.02l-4.37 2.52c-.18.1-.2.27-.03.37l4.18 2.41Zm6.38-3.69c.17.1.45.09.63-.02l4.37-2.52c.19-.1.2-.27.04-.37l-4.18-2.41a.7.7 0 0 0-.63.02l-4.37 2.52c-.19.11-.2.27-.04.37l4.18 2.41Zm33.15-20.9c.16.1.45.08.63-.02l4.37-2.53c.19-.1.2-.27.04-.36l-1.12-.64c-.16-.1-.44-.09-.63.02l-4.37 2.52c-.18.1-.2.27-.04.37l1.12.64Zm19.15-11.06c.17.1.45.08.64-.02l4.37-2.53c.18-.1.2-.27.03-.36l-1.11-.64c-.16-.1-.45-.09-.63.02l-4.37 2.52c-.19.1-.2.27-.04.37l1.11.64Zm8.78 5.07c.17.1.45.08.63-.02l4.37-2.53c.19-.1.2-.27.04-.36l-4.18-2.42a.7.7 0 0 0-.63.02l-4.37 2.53c-.19.1-.2.27-.04.36l4.18 2.42Zm12.16 14 4.37-2.52c.19-.1.2-.27.04-.37l-4.18-2.41c-.17-.1-.45-.08-.64.02l-4.36 2.52c-.19.11-.2.28-.04.37l4.18 2.41c.16.1.45.09.63-.02Zm-33.7-11.7c.16.1.44.09.63-.02l4.37-2.52c.18-.1.2-.27.03-.37l-1.11-.64a.7.7 0 0 0-.63.02l-4.37 2.52c-.19.1-.2.27-.04.37l1.11.64Zm-52.31 31.97c.16.1.45.08.63-.02l4.37-2.53c.19-.1.2-.27.04-.36l-4.18-2.42c-.16-.1-.45-.08-.63.03l-4.37 2.52c-.19.1-.2.27-.04.36l4.18 2.42Z"/>
  <path fill="#0d6efd" d="m275.27 367.23.95.55 25.23 14.56 44.87-25.9.93-.54-26.18-15.1-45.8 26.43Z"/>
  <path fill="#0d6efd" d="m345.74 356.77-24.67-14.23-44.28 25.57 24.66 14.23 44.29-25.57Z"/>
  <path fill="#fff" d="m345.74 356.77-24.67-14.23-44.28 25.57 24.66 14.23 44.29-25.57Z" opacity=".4"/>
  <path fill="#0d6efd" d="M150.76 357.83c-1.82-.83-2.32-2.28-2.5-4.84l-8.15-119.36c-.18-2.55 1.54-5.7 3.84-7.02l151.83-87.66c2.3-1.32 3.98-2.04 6.1-.6 2.22 1.52 2.17 2.26 2.34 4.8l8.16 119.37c.18 2.55-1.55 5.7-3.84 7.02L156.7 357.2c-2.3 1.33-3.6 1.72-5.95.63Z"/>
  <path fill="#fff" d="M150.76 357.83c-1.82-.83-2.32-2.28-2.5-4.84l-8.15-119.36c-.18-2.55 1.54-5.7 3.84-7.02l151.83-87.66c2.3-1.32 3.98-2.04 6.1-.6 2.22 1.52 2.17 2.26 2.34 4.8l8.16 119.37c.18 2.55-1.55 5.7-3.84 7.02L156.7 357.2c-2.3 1.33-3.6 1.72-5.95.63Z" opacity=".7"/>
  <path fill="#0d6efd" d="M304.22 143.16c-.17-2.55-2.18-3.54-4.47-2.22L147.92 228.6a7.87 7.87 0 0 0-2.85 3.06l-3.96-2c.69-1.27 1.7-2.39 2.84-3.05l151.83-87.66c2.3-1.32 3.99-2.06 6.1-.6 2.23 1.55 2.17 2.26 2.34 4.8Z"/>
  <path fill="#fff" d="M304.22 143.16c-.17-2.55-2.18-3.54-4.47-2.22L147.92 228.6a7.87 7.87 0 0 0-2.85 3.06l-3.96-2c.69-1.27 1.7-2.39 2.84-3.05l151.83-87.66c2.3-1.32 3.99-2.06 6.1-.6 2.23 1.55 2.17 2.26 2.34 4.8Z" opacity=".4"/>
  <path fill="#0d6efd" d="M156.4 357.38c-2.1 1.23-3.42 1.38-5.64.45-1.7-.71-2.32-2.28-2.49-4.83l-8.16-119.37c-.09-1.28.3-2.7 1-3.97l3.96 1.98v.01a7.5 7.5 0 0 0-1 3.96l8.16 119.37c.16 2.37 2.2 3.56 4.17 2.4ZM150.55 233.16l146.12-84.33c1.38-.8 2.58-.2 2.68 1.33l7.61 111.36a4.96 4.96 0 0 1-2.3 4.2l-146.12 84.34c-1.37.8-2.57.2-2.68-1.33l-7.61-111.35a4.96 4.96 0 0 1 2.3-4.22Z"/>
  <path fill="#fff" d="M150.55 233.16a4.96 4.96 0 0 0-2.3 4.22l7.48 109.5 144.45-83.38a4.96 4.96 0 0 0 2.3-4.2L295 149.8l-144.45 83.36Z"/>
  <path fill="#455a64" d="M312.48 159.99a1.03 1.03 0 0 0-.07-.25c.01-.02 0-.04-.01-.06a.95.95 0 0 0-.09-.24 1.3 1.3 0 0 0-.2-.35.52.52 0 0 0-.1-.14l-.1-.1a1 1 0 0 0-.2-.17l-.02-.02c-.09-.05-.18-.1-.27-.13-.55-.22-1.23-.15-1.98.28l-143.76 82.72c-1.58.9-2.77 3.07-2.56 6.13l7.06 103.47-.09-1.3.04.6c.06.75.55 1.34 1.19 1.64l.13.07.16.08c.08.04.17.06.26.08.13.02.25.04.38.04.3 0 .64-.1.97-.28l.07-.05 2.73-1.57 140.96-81.15a5.68 5.68 0 0 0 2.64-4.82l-7.1-104.14a4.8 4.8 0 0 0-.04-.34Z"/>
  <path fill="#0d6efd" d="M311.42 158.53c-.55-.22-1.24-.15-1.98.28l-143.77 82.72a5.69 5.69 0 0 0-2.64 4.82l.37 5.33-3.93-1.98-.36-5.26a5.67 5.67 0 0 1 2.63-4.82l143.78-82.72c.82-.48 1.58-.5 2.14-.2.56.28 3.1 1.54 3.76 1.83Z"/>
  <path fill="#0d6efd" d="M312.51 160.31c-.13-1.73-1.5-2.4-3.07-1.5l-143.77 82.72a5.67 5.67 0 0 0-2.64 4.82l.37 5.34 149.48-86.01-.37-5.37Z"/>
  <g opacity=".2">
    <path fill="#fff" d="m309.44 158.81-143.76 82.72a5.47 5.47 0 0 0-1.95 2.08l-3.9-1.94a5.34 5.34 0 0 1 1.92-2.05l143.77-82.72c.82-.48 1.57-.5 2.15-.2.55.28 3.1 1.53 3.74 1.83-.54-.23-1.23-.14-1.97.28Z"/>
  </g>
  <path fill="#000" d="m159.47 249.72-.36-5.28c-.06-.9.22-1.89.71-2.77l3.92 1.93c-.5.88-.76 1.86-.7 2.75l.36 5.34-3.93-1.97Z" opacity=".15"/>
  <path fill="#fff" d="M301.21 166.2c-.6.35-1.03 1.35-.97 2.24.06.89.6 1.32 1.2.98.6-.35 1.03-1.35.97-2.24-.06-.88-.6-1.32-1.2-.98ZM305.12 163.94c-.6.35-1.04 1.35-.98 2.24.06.89.6 1.32 1.2.98.6-.35 1.04-1.35.98-2.23-.07-.9-.6-1.33-1.2-.99ZM309.03 161.68c-.6.35-1.04 1.35-.98 2.24.06.89.6 1.33 1.2.98.6-.35 1.03-1.35.97-2.24-.06-.88-.6-1.32-1.2-.98Z"/>
  <path fill="#263238" d="m171.31 352.08-.16-.08-3.24-1.6a3.1 3.1 0 0 1-1.75-2.5l-6.7-98.2 3.94 1.98 6.73 98.75c.05.7.46 1.24 1.03 1.55l.1.06.02.01.03.03Z"/>
  <g opacity=".5">
    <g fill="#fff" opacity=".6">
      <path d="m175.67 308.1 3.89-2.25c.39-.22.73-.05.76.38l.1 1.38c.02.43-.27.96-.66 1.2l-3.9 2.24c-.38.22-.72.06-.75-.38l-.1-1.38a1.4 1.4 0 0 1 .66-1.19ZM176.04 313.58l3.9-2.25c.38-.22.72-.06.75.38l.1 1.38c.03.43-.27.96-.66 1.19l-3.89 2.25c-.39.22-.73.05-.76-.38l-.1-1.38a1.4 1.4 0 0 1 .66-1.2ZM176.41 319.06l3.9-2.25c.39-.23.73-.06.76.38l.09 1.37c.03.44-.26.97-.65 1.2l-3.9 2.24c-.39.23-.73.06-.75-.37l-.1-1.38a1.4 1.4 0 0 1 .65-1.2ZM176.79 324.54l3.89-2.25c.39-.23.73-.06.76.38l.1 1.37c.02.44-.27.97-.66 1.2l-3.9 2.24c-.38.23-.72.06-.75-.38l-.1-1.37a1.4 1.4 0 0 1 .66-1.2Z" fill="#000000"/>
    </g>
    <g fill="#fff" opacity=".6">
      <path d="m173.81 280.93 3.9-2.25c.39-.22.73-.05.76.38l.09 1.38c.03.43-.26.96-.65 1.19l-3.9 2.25c-.38.22-.73.05-.75-.38l-.1-1.38a1.4 1.4 0 0 1 .65-1.19ZM174.19 286.4l3.89-2.24c.39-.23.73-.06.76.38l.1 1.37c.02.44-.27.97-.66 1.2l-3.9 2.24c-.38.23-.72.06-.75-.37l-.1-1.38a1.4 1.4 0 0 1 .66-1.2ZM174.56 291.88l3.9-2.24c.38-.23.72-.06.75.38l.1 1.37c.03.44-.27.97-.66 1.2l-3.89 2.24c-.39.23-.73.06-.76-.38l-.1-1.37a1.4 1.4 0 0 1 .66-1.2ZM174.94 297.36l3.89-2.25c.39-.22.73-.05.76.38l.1 1.38c.02.43-.27.97-.66 1.2l-3.9 2.24c-.38.22-.72.06-.75-.38l-.1-1.38a1.4 1.4 0 0 1 .66-1.19ZM177.52 335.27l3.9-2.25c.38-.22.72-.05.75.38l.1 1.38c.03.43-.27.97-.66 1.2l-3.89 2.24c-.39.22-.73.05-.76-.38l-.1-1.38a1.4 1.4 0 0 1 .66-1.19ZM177.9 340.75l3.89-2.25c.39-.22.73-.05.76.38l.09 1.38c.03.43-.26.97-.65 1.2l-3.9 2.24c-.38.22-.73.05-.75-.38l-.1-1.38a1.4 1.4 0 0 1 .65-1.19Z" fill="#000000"/>
    </g>
    <g fill="#fff" opacity=".6">
      <path d="m171.96 253.76 3.9-2.25c.38-.23.72-.06.75.38l.1 1.37c.03.44-.27.97-.66 1.2l-3.89 2.24c-.39.23-.73.06-.76-.37l-.1-1.38a1.4 1.4 0 0 1 .66-1.2ZM172.34 259.24l3.89-2.25c.39-.23.73-.06.76.37l.1 1.38c.02.44-.27.97-.66 1.2l-3.9 2.24c-.38.23-.73.06-.75-.38l-.1-1.37a1.4 1.4 0 0 1 .66-1.2ZM172.7 264.71l3.9-2.24c.39-.23.73-.06.76.37l.1 1.38c.02.43-.27.97-.66 1.2l-3.9 2.24c-.38.23-.72.06-.75-.38l-.1-1.37a1.4 1.4 0 0 1 .66-1.2ZM173.08 270.2l3.9-2.26c.38-.22.73-.05.75.38l.1 1.38c.03.43-.27.97-.66 1.2l-3.89 2.24c-.39.22-.73.06-.76-.38l-.1-1.38a1.4 1.4 0 0 1 .66-1.19Z" fill="#000000"/>
    </g>
    <path fill="#37474f" d="m307.4 222.47-28.2 16.3a3.77 3.77 0 0 0-1.76 3.2l2.8 40.87c.07 1.16.99 1.62 2.03 1.01l28.21-16.29a3.77 3.77 0 0 0 1.75-3.2l-2.79-40.88c-.07-1.16-.99-1.61-2.03-1Z"/>
    <path fill="#0d6efd" d="m306.8 253.6-2.59 1.5c-.53.3-.93 1-.89 1.55.04.56.5.75 1.03.45l2.6-1.5c.52-.3.92-1 .88-1.56-.03-.55-.5-.75-1.02-.44Z"/>
    <path fill="#fff" d="m306.8 253.6-2.59 1.5c-.53.3-.93 1-.89 1.55.04.56.5.75 1.03.45l2.6-1.5c.52-.3.92-1 .88-1.56-.03-.55-.5-.75-1.02-.44Z" opacity=".6"/>
    <path fill="#0d6efd" d="m305.06 227.93-2.6 1.5c-.53.31-.93 1-.89 1.56.04.55.5.75 1.03.44l2.6-1.5c.52-.3.92-1 .88-1.55-.03-.55-.5-.75-1.02-.45Z"/>
    <path fill="#fff" d="m305.06 227.93-2.6 1.5c-.53.31-.93 1-.89 1.56.04.55.5.75 1.03.44l2.6-1.5c.52-.3.92-1 .88-1.55-.03-.55-.5-.75-1.02-.45Z" opacity=".6"/>
    <path fill="#0d6efd" d="m301.76 235.16-2.6 1.5c-.53.31-.93 1-.89 1.56.04.55.5.75 1.03.44l2.6-1.5c.52-.3.92-1 .88-1.55-.03-.55-.5-.75-1.02-.45Z"/>
    <path fill="#fff" d="m301.76 235.16-2.6 1.5c-.53.31-.93 1-.89 1.56.04.55.5.75 1.03.44l2.6-1.5c.52-.3.92-1 .88-1.55-.03-.55-.5-.75-1.02-.45Z" opacity=".6"/>
    <path fill="#0d6efd" d="m302.1 240.28-2.6 1.5c-.52.3-.92 1-.88 1.56.04.55.5.75 1.02.44l2.6-1.5c.53-.3.93-1 .9-1.55-.04-.55-.5-.75-1.03-.45Z"/>
    <path fill="#fff" d="m302.1 240.28-2.6 1.5c-.52.3-.92 1-.88 1.56.04.55.5.75 1.02.44l2.6-1.5c.53-.3.93-1 .9-1.55-.04-.55-.5-.75-1.03-.45Z" opacity=".6"/>
    <path fill="#0d6efd" d="m306.1 243.33-2.59 1.5c-.53.3-.93 1-.89 1.55.04.56.5.75 1.03.45l2.6-1.5c.52-.3.92-1 .88-1.56-.03-.55-.5-.75-1.02-.44Z"/>
    <path fill="#fff" d="m306.1 243.33-2.59 1.5c-.53.3-.93 1-.89 1.55.04.56.5.75 1.03.45l2.6-1.5c.52-.3.92-1 .88-1.56-.03-.55-.5-.75-1.02-.44Z" opacity=".6"/>
    <path fill="#0d6efd" d="m302.8 250.56-2.59 1.5c-.53.31-.93 1-.89 1.56.04.55.5.75 1.03.44l2.6-1.5c.52-.3.92-1 .88-1.55-.03-.55-.5-.75-1.02-.45Z"/>
    <path fill="#fff" d="m302.8 250.56-2.59 1.5c-.53.31-.93 1-.89 1.56.04.55.5.75 1.03.44l2.6-1.5c.52-.3.92-1 .88-1.55-.03-.55-.5-.75-1.02-.45Z" opacity=".6"/>
    <path fill="#0d6efd" d="m297.95 232.04-15.86 9.16c-.53.3-.93 1-.9 1.55.04.55.5.75 1.03.45l15.86-9.16c.53-.3.93-1 .9-1.55-.04-.56-.5-.75-1.03-.45Z"/>
    <path fill="#fff" d="m297.95 232.04-15.86 9.16c-.53.3-.93 1-.9 1.55.04.55.5.75 1.03.45l15.86-9.16c.53-.3.93-1 .9-1.55-.04-.56-.5-.75-1.03-.45Z" opacity=".8"/>
    <path fill="#0d6efd" d="m299.7 257.7-15.86 9.16c-.53.31-.93 1-.9 1.56.04.55.5.75 1.03.44l15.86-9.16c.53-.3.93-1 .9-1.55-.04-.55-.5-.75-1.03-.44Z"/>
    <path fill="#fff" d="m299.7 257.7-15.86 9.16c-.53.31-.93 1-.9 1.56.04.55.5.75 1.03.44l15.86-9.16c.53-.3.93-1 .9-1.55-.04-.55-.5-.75-1.03-.44Z" opacity=".8"/>
    <path fill="#0d6efd" d="m294.64 239.27-12.2 7.06c-.54.3-.93 1-.9 1.56.04.55.5.75 1.03.44l12.21-7.06c.53-.3.93-1 .9-1.56-.05-.55-.5-.75-1.04-.44Z"/>
    <path fill="#fff" d="m294.64 239.27-12.2 7.06c-.54.3-.93 1-.9 1.56.04.55.5.75 1.03.44l12.21-7.06c.53-.3.93-1 .9-1.56-.05-.55-.5-.75-1.04-.44Z" opacity=".8"/>
    <path fill="#0d6efd" d="m295 244.4-12.21 7.06c-.54.31-.93 1-.9 1.56.04.55.5.75 1.03.44l12.21-7.06c.53-.3.93-1 .9-1.55-.05-.55-.5-.75-1.03-.45Z"/>
    <path fill="#fff" d="m295 244.4-12.21 7.06c-.54.31-.93 1-.9 1.56.04.55.5.75 1.03.44l12.21-7.06c.53-.3.93-1 .9-1.55-.05-.55-.5-.75-1.03-.45Z" opacity=".8"/>
    <path fill="#0d6efd" d="m299 247.44-15.86 9.16c-.53.3-.93 1-.9 1.55.04.55.5.75 1.03.45l15.86-9.16c.53-.3.93-1 .9-1.56-.04-.55-.5-.75-1.03-.44Z"/>
    <path fill="#fff" d="m299 247.44-15.86 9.16c-.53.3-.93 1-.9 1.55.04.55.5.75 1.03.45l15.86-9.16c.53-.3.93-1 .9-1.56-.04-.55-.5-.75-1.03-.44Z" opacity=".8"/>
    <path fill="#0d6efd" d="m295.7 254.67-12.21 7.06c-.54.3-.93 1-.9 1.55.04.56.5.76 1.03.45l12.21-7.06c.53-.3.93-1 .9-1.55-.05-.56-.5-.76-1.04-.45Z"/>
    <path fill="#fff" d="m295.7 254.67-12.21 7.06c-.54.3-.93 1-.9 1.55.04.56.5.76 1.03.45l12.21-7.06c.53-.3.93-1 .9-1.55-.05-.56-.5-.76-1.04-.45Z" opacity=".8"/>
    <path fill="#0d6efd" d="m307.51 263.92-2.6 1.5c-.52.3-.92 1-.89 1.56.04.55.5.75 1.03.44l2.6-1.5c.53-.3.93-1 .89-1.55-.04-.56-.5-.75-1.03-.45Z"/>
    <path fill="#fff" d="m307.51 263.92-2.6 1.5c-.52.3-.92 1-.89 1.56.04.55.5.75 1.03.44l2.6-1.5c.53-.3.93-1 .89-1.55-.04-.56-.5-.75-1.03-.45Z" opacity=".6"/>
    <path fill="#0d6efd" d="m303.51 260.88-2.6 1.5c-.53.31-.92 1-.89 1.56.04.55.5.75 1.03.44l2.6-1.5c.53-.3.93-1 .89-1.55-.04-.55-.5-.75-1.03-.44Z"/>
    <path fill="#fff" d="m303.51 260.88-2.6 1.5c-.53.31-.92 1-.89 1.56.04.55.5.75 1.03.44l2.6-1.5c.53-.3.93-1 .89-1.55-.04-.55-.5-.75-1.03-.44Z" opacity=".6"/>
    <path fill="#0d6efd" d="m300.4 268.03-15.86 9.16c-.53.3-.93 1-.9 1.55.05.55.5.75 1.04.44l15.86-9.15c.53-.3.92-1 .89-1.55-.04-.56-.5-.76-1.03-.45Z"/>
    <path fill="#fff" d="m300.4 268.03-15.86 9.16c-.53.3-.93 1-.9 1.55.05.55.5.75 1.04.44l15.86-9.15c.53-.3.92-1 .89-1.55-.04-.56-.5-.76-1.03-.45Z" opacity=".8"/>
    <path fill="#0d6efd" d="m296.4 265-12.21 7.05c-.53.3-.93 1-.9 1.56.05.55.5.75 1.03.44l12.22-7.06c.52-.3.92-1 .89-1.55-.04-.55-.5-.75-1.03-.45Z"/>
    <path fill="#fff" d="m296.4 265-12.21 7.05c-.53.3-.93 1-.9 1.56.05.55.5.75 1.03.44l12.22-7.06c.52-.3.92-1 .89-1.55-.04-.55-.5-.75-1.03-.45Z" opacity=".8"/>
    <path fill="#37474f" d="m304.54 180.43-28.21 16.28a3.77 3.77 0 0 0-1.75 3.2l2.13 31.34c.08 1.17 1 1.62 2.04 1.02l28.21-16.3a3.77 3.77 0 0 0 1.75-3.2l-2.13-31.33c-.08-1.16-1-1.62-2.04-1.01Z"/>
    <path fill="#0d6efd" d="m303.94 211.55-2.6 1.5c-.52.3-.92 1-.89 1.56.04.55.5.75 1.03.44l2.6-1.5c.53-.3.93-1 .89-1.55-.04-.56-.5-.75-1.03-.45Z"/>
    <path fill="#fff" d="m303.94 211.55-2.6 1.5c-.52.3-.92 1-.89 1.56.04.55.5.75 1.03.44l2.6-1.5c.53-.3.93-1 .89-1.55-.04-.56-.5-.75-1.03-.45Z" opacity=".6"/>
    <path fill="#0d6efd" d="m302.19 185.89-2.6 1.5c-.53.3-.93 1-.89 1.55.04.55.5.75 1.03.45l2.6-1.5c.52-.31.92-1 .88-1.56-.03-.55-.5-.75-1.02-.44Z"/>
    <path fill="#fff" d="m302.19 185.89-2.6 1.5c-.53.3-.93 1-.89 1.55.04.55.5.75 1.03.45l2.6-1.5c.52-.31.92-1 .88-1.56-.03-.55-.5-.75-1.02-.44Z" opacity=".6"/>
    <path fill="#0d6efd" d="m298.89 193.12-2.6 1.5c-.53.3-.93 1-.89 1.55.04.55.5.75 1.03.45l2.6-1.5c.52-.31.92-1 .89-1.56-.04-.55-.5-.75-1.03-.44Z"/>
    <path fill="#fff" d="m298.89 193.12-2.6 1.5c-.53.3-.93 1-.89 1.55.04.55.5.75 1.03.45l2.6-1.5c.52-.31.92-1 .89-1.56-.04-.55-.5-.75-1.03-.44Z" opacity=".6"/>
    <path fill="#0d6efd" d="m299.24 198.24-2.6 1.5c-.53.3-.93 1-.89 1.55.04.55.5.75 1.03.45l2.6-1.5c.52-.31.92-1 .88-1.56-.03-.55-.5-.75-1.02-.44Z"/>
    <path fill="#fff" d="m299.24 198.24-2.6 1.5c-.53.3-.93 1-.89 1.55.04.55.5.75 1.03.45l2.6-1.5c.52-.31.92-1 .88-1.56-.03-.55-.5-.75-1.02-.44Z" opacity=".6"/>
    <path fill="#0d6efd" d="m303.24 201.28-2.6 1.5c-.53.31-.93 1-.89 1.56.04.55.5.75 1.03.44l2.6-1.5c.52-.3.92-1 .88-1.55-.03-.55-.5-.75-1.02-.45Z"/>
    <path fill="#fff" d="m303.24 201.28-2.6 1.5c-.53.31-.93 1-.89 1.56.04.55.5.75 1.03.44l2.6-1.5c.52-.3.92-1 .88-1.55-.03-.55-.5-.75-1.02-.45Z" opacity=".6"/>
    <path fill="#0d6efd" d="m299.94 208.52-2.6 1.5c-.53.3-.93 1-.89 1.55.04.55.5.75 1.03.45l2.6-1.5c.52-.31.92-1 .88-1.56-.03-.55-.5-.75-1.02-.44Z"/>
    <path fill="#fff" d="m299.94 208.52-2.6 1.5c-.53.3-.93 1-.89 1.55.04.55.5.75 1.03.45l2.6-1.5c.52-.31.92-1 .88-1.56-.03-.55-.5-.75-1.02-.44Z" opacity=".6"/>
    <path fill="#0d6efd" d="m295.08 190-15.86 9.15c-.53.3-.93 1-.9 1.56.05.55.5.75 1.03.44l15.86-9.16c.53-.3.93-1 .9-1.55-.04-.55-.5-.75-1.03-.45Z"/>
    <path fill="#fff" d="m295.08 190-15.86 9.15c-.53.3-.93 1-.9 1.56.05.55.5.75 1.03.44l15.86-9.16c.53-.3.93-1 .9-1.55-.04-.55-.5-.75-1.03-.45Z" opacity=".8"/>
    <path fill="#0d6efd" d="m296.83 215.66-15.86 9.16c-.53.3-.93 1-.9 1.55.05.55.5.75 1.04.45l15.85-9.16c.54-.3.93-1 .9-1.56-.04-.55-.5-.75-1.03-.44Z"/>
    <path fill="#fff" d="m296.83 215.66-15.86 9.16c-.53.3-.93 1-.9 1.55.05.55.5.75 1.04.45l15.85-9.16c.54-.3.93-1 .9-1.56-.04-.55-.5-.75-1.03-.44Z" opacity=".8"/>
    <path fill="#0d6efd" d="m291.78 197.22-12.21 7.07c-.53.3-.93 1-.9 1.55.04.55.5.75 1.03.44l12.21-7.06c.53-.3.93-1 .9-1.55-.04-.55-.5-.75-1.03-.45Z"/>
    <path fill="#fff" d="m291.78 197.22-12.21 7.07c-.53.3-.93 1-.9 1.55.04.55.5.75 1.03.44l12.21-7.06c.53-.3.93-1 .9-1.55-.04-.55-.5-.75-1.03-.45Z" opacity=".8"/>
    <path fill="#0d6efd" d="m292.13 202.36-12.21 7.06c-.53.3-.93 1-.9 1.55.05.55.5.75 1.03.45l12.21-7.07c.53-.3.93-1 .9-1.55-.04-.55-.5-.75-1.03-.44Z"/>
    <path fill="#fff" d="m292.13 202.36-12.21 7.06c-.53.3-.93 1-.9 1.55.05.55.5.75 1.03.45l12.21-7.07c.53-.3.93-1 .9-1.55-.04-.55-.5-.75-1.03-.44Z" opacity=".8"/>
    <path fill="#0d6efd" d="m296.13 205.4-15.86 9.15c-.53.3-.93 1-.9 1.55.05.56.5.75 1.03.45l15.87-9.16c.52-.3.92-1 .88-1.55-.03-.55-.5-.75-1.02-.45Z"/>
    <path fill="#fff" d="m296.13 205.4-15.86 9.15c-.53.3-.93 1-.9 1.55.05.56.5.75 1.03.45l15.87-9.16c.52-.3.92-1 .88-1.55-.03-.55-.5-.75-1.02-.45Z" opacity=".8"/>
    <path fill="#0d6efd" d="m292.83 212.62-12.21 7.06c-.53.3-.93 1-.9 1.56.04.55.5.75 1.03.44l12.21-7.06c.53-.3.93-1 .9-1.55-.04-.55-.5-.75-1.03-.45Z"/>
    <path fill="#fff" d="m292.83 212.62-12.21 7.06c-.53.3-.93 1-.9 1.56.04.55.5.75 1.03.44l12.21-7.06c.53-.3.93-1 .9-1.55-.04-.55-.5-.75-1.03-.45Z" opacity=".8"/>
  </g>
  <path fill="#0d6efd" d="m182.38 248.56 28.25-16.31c.4-.23.74-.08.76.33.03.41-.26.93-.66 1.16l-28.25 16.3c-.4.24-.74.09-.76-.33-.03-.4.27-.93.66-1.15ZM183.58 266.58l83.14-47.93c.4-.23.74-.08.77.33.03.41-.27.93-.67 1.16l-83.14 47.93c-.4.23-.74.08-.76-.33-.03-.42.27-.94.66-1.16ZM213.4 230.65l52.53-30.23c.4-.23.74-.08.77.33.02.41-.27.93-.67 1.16l-52.53 30.23c-.4.23-.74.08-.76-.33-.03-.42.27-.94.66-1.16ZM182.67 252.84l14.3-8.27c.4-.22.74-.08.77.34.03.4-.27.93-.66 1.16l-14.3 8.26c-.4.23-.74.08-.77-.33-.03-.41.27-.93.66-1.16Z"/>
  <path fill="#fff" d="m182.67 252.84 14.3-8.27c.4-.22.74-.08.77.34.03.4-.27.93-.66 1.16l-14.3 8.26c-.4.23-.74.08-.77-.33-.03-.41.27-.93.66-1.16Z" opacity=".6"/>
  <path fill="#0d6efd" d="m182.96 257.1 8.6-4.95c.39-.22.73-.08.76.34.03.4-.27.93-.66 1.16l-8.6 4.94c-.4.23-.73.08-.76-.33-.03-.41.27-.94.66-1.16Z"/>
  <path fill="#fff" d="m182.96 257.1 8.6-4.95c.39-.22.73-.08.76.34.03.4-.27.93-.66 1.16l-8.6 4.94c-.4.23-.73.08-.76-.33-.03-.41.27-.94.66-1.16Z" opacity=".6"/>
  <path fill="#0d6efd" d="m199.75 242.97 49.77-28.67c.4-.23.74-.08.77.34.02.4-.27.93-.67 1.15l-49.77 28.67c-.4.23-.74.08-.77-.33-.03-.41.27-.93.67-1.16Z"/>
  <path fill="#fff" d="m199.75 242.97 49.77-28.67c.4-.23.74-.08.77.34.02.4-.27.93-.67 1.15l-49.77 28.67c-.4.23-.74.08-.77-.33-.03-.41.27-.93.67-1.16Z" opacity=".6"/>
  <path fill="#FFA8A7" d="m191.82 276.35 76.1-43.97c.39-.23.73-.08.76.33.03.41-.27.93-.67 1.16l-76.09 43.97c-.4.23-.74.08-.77-.33-.03-.41.27-.93.67-1.16ZM191.53 272.1l76.09-44c.4-.22.74-.08.77.34.02.4-.27.93-.67 1.16l-76.1 43.98c-.38.23-.73.09-.76-.33-.03-.41.27-.93.67-1.16Z"/>
  <path fill="#0d6efd" d="m193.85 250.84 14.15-8.2c.4-.23.74-.09.77.33.02.4-.27.93-.67 1.16l-14.15 8.2c-.4.23-.73.08-.76-.33-.03-.41.27-.93.66-1.16Z"/>
  <path fill="#fff" d="m193.85 250.84 14.15-8.2c.4-.23.74-.09.77.33.02.4-.27.93-.67 1.16l-14.15 8.2c-.4.23-.73.08-.76-.33-.03-.41.27-.93.66-1.16Z" opacity=".6"/>
  <path fill="#0d6efd" d="m210.77 241.03 55.33-31.7c.4-.22.74-.07.77.34.02.41-.27.93-.67 1.16l-55.32 31.7c-.4.22-.74.07-.77-.34-.03-.41.27-.93.66-1.16Z"/>
  <path fill="#fff" d="m210.77 241.03 55.33-31.7c.4-.22.74-.07.77.34.02.41-.27.93-.67 1.16l-55.32 31.7c-.4.22-.74.07-.77-.34-.03-.41.27-.93.66-1.16Z" opacity=".6"/>
  <path fill="#0d6efd" d="m183.24 261.6 25.07-14.4c.4-.22.74-.08.77.34.03.4-.27.93-.67 1.16l-25.07 14.39c-.4.23-.74.08-.76-.34-.03-.4.27-.93.66-1.15Z"/>
  <path fill="#fff" d="m183.24 261.6 25.07-14.4c.4-.22.74-.08.77.34.03.4-.27.93-.67 1.16l-25.07 14.39c-.4.23-.74.08-.76-.34-.03-.4.27-.93.66-1.15Z" opacity=".6"/>
  <path fill="#0d6efd" d="m211.09 245.6 55.32-31.69c.4-.23.74-.08.77.33.03.41-.27.93-.67 1.16l-55.32 31.7c-.4.22-.74.07-.77-.34-.03-.41.27-.93.67-1.16Z"/>
  <path fill="#fff" d="m211.09 245.6 55.32-31.69c.4-.23.74-.08.77.33.03.41-.27.93-.67 1.16l-55.32 31.7c-.4.22-.74.07-.77-.34-.03-.41.27-.93.67-1.16Z" opacity=".6"/>
  <path fill="#F28F8F" d="m192.11 280.66 76.1-43.86c.4-.23.74-.08.77.33.03.41-.27.93-.67 1.16l-76.1 43.86c-.4.23-.73.08-.76-.33-.03-.41.27-.93.66-1.16ZM192.4 284.93l76.1-43.87c.4-.23.74-.08.77.34.03.4-.27.93-.66 1.15l-76.1 43.87c-.4.23-.74.08-.77-.34-.03-.4.27-.93.66-1.15ZM192.7 289.2l76.1-43.87c.39-.23.73-.08.76.33.03.41-.27.93-.66 1.16l-76.1 43.86c-.4.23-.74.08-.77-.33-.03-.41.27-.93.66-1.16Z"/>
  <path fill="#0d6efd" d="m193.08 294.86 76.1-43.86c.4-.22.74-.08.77.34.03.41-.27.93-.67 1.16l-76.1 43.85c-.4.23-.74.08-.76-.34-.03-.4.27-.92.66-1.15ZM185.78 299.02l3.3-1.9c.4-.24.75-.09.78.33.02.4-.27.93-.67 1.16l-3.31 1.9c-.4.23-.74.08-.77-.33-.03-.42.27-.94.67-1.16Z"/>
  <path fill="#fff" d="m185.78 299.02 3.3-1.9c.4-.24.75-.09.78.33.02.4-.27.93-.67 1.16l-3.31 1.9c-.4.23-.74.08-.77-.33-.03-.42.27-.94.67-1.16Z" opacity=".6"/>
  <path fill="#0d6efd" d="m184.19 275.7 3.3-1.9c.4-.23.75-.08.77.33.03.42-.26.94-.66 1.16l-3.31 1.9c-.4.23-.74.08-.77-.33-.03-.41.27-.93.67-1.16Z"/>
  <path fill="#fff" d="m184.19 275.7 3.3-1.9c.4-.23.75-.08.77.33.03.42-.26.94-.66 1.16l-3.31 1.9c-.4.23-.74.08-.77-.33-.03-.41.27-.93.67-1.16Z" opacity=".6"/>
  <path fill="#0d6efd" d="m184.81 284.88 3.31-1.9c.4-.23.74-.09.77.33.03.4-.27.93-.66 1.16l-3.32 1.9c-.4.23-.73.08-.76-.33-.03-.42.27-.93.66-1.16Z"/>
  <path fill="#fff" d="m184.81 284.88 3.31-1.9c.4-.23.74-.09.77.33.03.4-.27.93-.66 1.16l-3.32 1.9c-.4.23-.73.08-.76-.33-.03-.42.27-.93.66-1.16Z" opacity=".6"/>
  <path fill="#0d6efd" d="m185.1 289.15 3.31-1.9c.4-.24.74-.09.77.33.03.4-.27.93-.66 1.15l-3.31 1.9c-.4.24-.74.09-.77-.33-.03-.4.27-.93.66-1.15Z"/>
  <path fill="#fff" d="m185.1 289.15 3.31-1.9c.4-.24.74-.09.77.33.03.4-.27.93-.66 1.15l-3.31 1.9c-.4.24-.74.09-.77-.33-.03-.4.27-.93.66-1.15Z" opacity=".6"/>
  <path fill="#0d6efd" d="m185.4 293.41 3.3-1.9c.4-.23.74-.08.77.33.03.41-.27.93-.66 1.16l-3.31 1.9c-.4.23-.74.08-.77-.33-.03-.41.27-.93.67-1.16Z"/>
  <path fill="#fff" d="m185.4 293.41 3.3-1.9c.4-.23.74-.08.77.33.03.41-.27.93-.66 1.16l-3.31 1.9c-.4.23-.74.08-.77-.33-.03-.41.27-.93.67-1.16Z" opacity=".6"/>
  <path fill="#0d6efd" d="m186.04 302.88 3.31-1.9c.4-.24.74-.09.77.32.03.42-.27.94-.67 1.16l-3.3 1.9c-.4.24-.75.09-.78-.33-.02-.4.28-.93.67-1.15Z"/>
  <path fill="#fff" d="m186.04 302.88 3.31-1.9c.4-.24.74-.09.77.32.03.42-.27.94-.67 1.16l-3.3 1.9c-.4.24-.75.09-.78-.33-.02-.4.28-.93.67-1.15Z" opacity=".6"/>
  <path fill="#FFA8A7" d="m193.34 298.74 76.1-43.99c.4-.22.74-.08.76.34.03.4-.26.93-.66 1.16l-76.1 43.98c-.39.23-.73.08-.76-.33-.03-.41.27-.93.66-1.16Z"/>
  <path fill="#0d6efd" d="m195.6 326.43 20.45-11.8c.4-.23.74-.08.76.34.03.4-.27.93-.66 1.15l-20.44 11.8c-.4.23-.74.08-.77-.33-.03-.41.27-.93.67-1.16ZM187.94 330.8l3.32-1.9c.4-.22.74-.07.76.34.03.41-.27.93-.66 1.16l-3.31 1.9c-.4.23-.74.08-.77-.33-.03-.42.27-.93.66-1.16Z"/>
  <path fill="#fff" d="m187.94 330.8 3.32-1.9c.4-.22.74-.07.76.34.03.41-.27.93-.66 1.16l-3.31 1.9c-.4.23-.74.08-.77-.33-.03-.42.27-.93.66-1.16Z" opacity=".6"/>
  <path fill="#0d6efd" d="m188.2 334.67 3.32-1.9c.4-.23.74-.09.77.33.02.4-.27.93-.67 1.15l-3.31 1.9c-.4.24-.74.09-.77-.32-.03-.42.27-.94.67-1.16Z"/>
  <path fill="#fff" d="m188.2 334.67 3.32-1.9c.4-.23.74-.09.77.33.02.4-.27.93-.67 1.15l-3.31 1.9c-.4.24-.74.09-.77-.32-.03-.42.27-.94.67-1.16Z" opacity=".6"/>
  <path fill="#FFA8A7" d="m195.83 330.12 75.46-43.54c.4-.23.73-.08.76.33.03.41-.27.93-.66 1.16l-75.46 43.54c-.4.23-.74.08-.77-.33-.02-.41.27-.93.67-1.16Z"/>
  <path fill="#0d6efd" d="m194.1 307.82 75.97-43.75c.4-.23.74-.08.77.33.03.41-.27.93-.67 1.16L194.2 309.3c-.4.23-.74.08-.77-.34-.03-.4.27-.93.66-1.15ZM186.66 312.05l3.32-1.9c.4-.23.74-.08.76.33.03.41-.27.93-.66 1.16l-3.31 1.9c-.4.23-.74.08-.77-.33-.03-.41.27-.93.66-1.16Z"/>
  <path fill="#fff" d="m186.66 312.05 3.32-1.9c.4-.23.74-.08.76.33.03.41-.27.93-.66 1.16l-3.31 1.9c-.4.23-.74.08-.77-.33-.03-.41.27-.93.66-1.16Z" opacity=".6"/>
  <path fill="#0d6efd" d="m194.38 312.03 75.98-43.75c.4-.22.74-.08.77.34.02.4-.27.93-.67 1.15l-75.98 43.75c-.4.23-.73.08-.76-.33-.03-.41.27-.93.66-1.16ZM186.96 316.32l3.3-1.9c.4-.23.75-.09.78.33.02.4-.27.93-.67 1.16l-3.31 1.9c-.4.23-.74.08-.77-.33-.03-.42.27-.93.67-1.16Z"/>
  <path fill="#fff" d="m186.96 316.32 3.3-1.9c.4-.23.75-.09.78.33.02.4-.27.93-.67 1.16l-3.31 1.9c-.4.23-.74.08-.77-.33-.03-.42.27-.93.67-1.16Z" opacity=".6"/>
  <path fill="#F28F8F" d="m194.68 316.32 75.97-43.75c.4-.23.74-.08.77.33.03.41-.27.93-.67 1.16l-75.97 43.75c-.4.23-.74.08-.77-.34-.03-.4.27-.93.67-1.15Z"/>
  <path fill="#0d6efd" d="m187.25 320.58 3.31-1.9c.4-.23.74-.08.77.33.02.42-.27.93-.67 1.16l-3.31 1.9c-.4.23-.74.08-.77-.33-.02-.4.27-.93.67-1.16Z"/>
  <path fill="#fff" d="m187.25 320.58 3.31-1.9c.4-.23.74-.08.77.33.02.42-.27.93-.67 1.16l-3.31 1.9c-.4.23-.74.08-.77-.33-.02-.4.27-.93.67-1.16Z" opacity=".6"/>
  <path fill="#B16668" d="M423.71 372.92s-17.53-10.63-26.99-15.97c-7.52-4.26-14.25-9.48-21.54-9.48-8.06 0-13.49-2.37-19.03-5.53-4.54-2.59-7.48-4.14-11.49-6.5-4-2.35-8.01-4.56-11-7.04-2.14-1.78-8.17-6.16-9.11-8.9-.94-2.74 2.87-4.99 7.3-3.87 4.42 1.12 10.38 5.47 15.54 6.45 5.15.97 6.76 1.05 7.1-2.34.36-3.39-3.12-9.12-5.34-11.39-2.22-2.26-7.28-5.2-11.14-6.83-3.87-1.63-10.35-4.83-10.35-4.83s-5.5-1.35-8.48-2.57c-2.99-1.23-5.39-3.5-5.22-6.9-3.07-3.03-1.31-5.99.66-5.89 1.97.1 10.32 1.6 16.19 2.78 5.86 1.2 14 3.4 16.83 4.25 2.82.86 11.92 5.62 17.17 8.22 5.25 2.6 5.81 3.46 7.33 5.1 1.29 1.4 6.45 7.06 12 12.61 6.03 6.03 9.03 8.04 13.68 9.54 7.1 2.29 34.53 12.52 42.37 13.63 5.15 8.15-4.97 29.56-16.48 35.46Z"/>
  <path fill="#9A4A4D" d="M328.25 296.98a41.33 41.33 0 0 0-6.19 3.95c-2.26 1.84 1.15 6.05 8.57 4.77 7.43-1.27 10.94-2.49 10.94-2.49l-13.31-6.23ZM313.96 287.22c.1-1.83 1.96-2.59 5.03-1.96 3.08.62 14.8 3.47 18.9 4.43 4.1.96 6.96 2.04 12 4.93 5.03 2.89 14.48 9.76 14.48 9.76s-3.4-3.65-9.68-8.01c-6.28-4.37-8.68-6-15.17-7.64-6.5-1.64-18.78-4.51-21.3-4.92-2.52-.41-4.8.51-4.26 3.4Z"/>
  <path fill="#37474f" d="M536.2 307.46c21.83-3.22 42.02 2.75 47.73 26.22 4.2 17.27-20.45 70.25-33.24 101.73 0 0-49.47-2-53.7-38.56l39.2-89.39Z"/>
  <path fill="#9A4A4D" d="M444.6 228.1s-16.57 20-15.38 21.82c1.18 1.8 10.4 6.04 10.4 6.04l4.98-27.86Z"/>
  <path fill="#B16668" d="M455.2 192.35c-8.77 3-11.8 10.4-13.41 24.8-.69 6.04 1.98 15.36-.08 21.66-5.75 17.58-2.07 47.46 2.67 53.07 3.2 3.79 23.71 9.98 33.84 8.35 12.67-2.05 40.72-11.1 55.6-28.89 17.51-20.92 24.42-50.9 9.12-64.98-21.55-19.8-78.36-17.22-87.73-14.01Z"/>
  <path fill="#B16668" d="m526.57 300.7-.93-16.2-50.21 8.85 1.1 11.25c.6 6.31 1.1 12.83-3.06 15.27-7.48 4.38-19.84 11.15-28.17 16.22 0 0 36.34 4.43 63.7-.09 27.37-4.51 23.46-28.14 23.46-28.14-1.37.04-5.52.57-5.89-7.16Z"/>
  <path fill="#9A4A4D" d="M445.3 292.68c4.08 2.9 16.08 8.03 30.84 8.01l-.71-7.34s-7.55 1.86-17.74 1.6c-7.35-.18-12.31-2.25-12.39-2.27Z"/>
  <path fill="#263238" d="M438.49 195.6a12.6 12.6 0 0 0-2.5 6.5c-.31 4 1.64 8.16 5.07 10.23 3.43 2.07 8.23 1.75 11.16-.98-.88 3.98 0 8.48 2.9 11.34 2.9 2.86 7.93 3.56 11.14 1.05-1 2.1-1.84 4.98-.02 6.42a4 4 0 0 0 1.58.69c1.63.38 3.38.27 4.95-.32-1.66 1.97-2.74 4.45-2.1 6.93.22.81 4.22 5.84 4.44 5.24 0 0 5.12-14.09 17.12-11.1 12.09 3.02 12.23 18.81 3.58 27.56-8.58 8.68-15.39 4.47-15.49 4.4.06 2.53-.29 16.18 10.93 24.04 6.88 4.82 24.97 5.87 34.52.14 3.51-6.28 9.42-14.33 13.97-21.38 15.25-23.62 20.26-38.18 17.61-51.5-1.8-9.07-5.86-14.25-12.72-15.97-.36-8.63-1.62-15.26-10.88-23.23-14.55-12.5-31.37-13.59-44.4-13-4.5.2-9.01 1-13.47.37-3.85-.55-7.48-2.14-11.3-2.82-3.83-.68-8.23-.25-10.88 2.6-2.8 2.98-2.8 7.66-1.77 11.62-3.14.21-6.31.9-8.97 2.58-2.67 1.67-4.77 4.42-5.12 7.54-.35 3.13 1.33 6.52 4.25 7.68-1.39.9-2.61 2.05-3.6 3.38Z"/>
  <path fill="#F0F0F0" d="M422.24 561.6c.03-11.7.08-20.81.13-28.58.16-25.65.23-36.27-1-75.8-2.18-69.85 5.84-110.72 24.54-124.95l9.22-4.12c8.98-4.02 11.76-5.27 18.3-7.55 2.3 1.06 9.66 3.9 22.5 3.9 2.58 0 5.25-.12 7.97-.35 19.43-1.66 28.34-11.8 29.18-15.68l3.08-.32c3.19.65 9.02 3.07 14.58 6.06l1.05.56c5.19 2.7 15.99 8.31 20.3 29.4 8.34 40.59-.24 77.85-6.5 105.06a536.43 536.43 0 0 0-3.68 16.74l-1.1 5.58c-5.02 25.4-8.34 42.22-7.24 68.77l-83.58 49.49-47.75-28.2Z"/>
  <path fill="#E0E0E0" d="M536.13 308.84c3.14.66 8.84 3.04 14.28 5.97l1.06.56c5.5 2.86 15.7 8.17 19.95 28.93 8.32 40.45-.25 77.63-6.5 104.78a543.81 543.81 0 0 0-4.78 22.33c-5 25.32-8.32 42.13-7.27 68.53l-82.88 49.08-47.07-27.8c.03-11.52.09-20.37.13-28.2.16-25.66.23-36.28-1-75.81-2.17-69.54 5.75-110.22 24.21-124.35l9.14-4.09c8.84-3.96 11.67-5.23 18-7.44 2.6 1.15 10 3.84 22.54 3.84 2.59 0 5.29-.11 8.02-.34 11.25-.96 18.53-4.72 22.66-7.7 3.95-2.85 6.3-5.92 7-8.03l2.5-.26Zm.07-1.38-3.73.4c.15 2.7-8.33 13.88-28.63 15.61-2.82.24-5.45.34-7.9.34-11.76 0-19.24-2.4-22.47-3.95-8.66 3.01-10.93 4.28-27.9 11.82-17.5 13.24-27.24 49.94-24.88 125.57 1.61 51.72 1 54.37.87 104.75l48.43 28.6 84.27-49.9c-1.22-28.6 2.67-45.84 8.32-74.6 5.69-29.03 20.35-72.58 10.18-122.08-4.68-22.86-16.76-27.74-21.7-30.4-5.84-3.15-11.72-5.55-14.86-6.16Z"/>
  <path fill="#B16668" d="M341.8 411.36c-19.13-12.3-33.05-23.5-35.82-28.14-3.11-5.22-6.65-16.47-8.5-24.88-1.04-4.75-1.86-8.11-4.89-13-3.03-4.9-5.51-7.78-6.5-8.7-.98-.92-4.35 1.34-4.22 5.15.14 3.8 2.51 6.93 2.96 9.54.45 2.6-1.47 9.57-1.47 9.57s-5.35-5.4-10.4-9.86c-5.03-4.47-7.36-6.16-13-8.86a135.48 135.48 0 0 0-10.07-4.45 121.5 121.5 0 0 0-11.5-3.2c-3.34-.64-3.37 2.57-1.61 5.01 1.75 2.44 11.93 7.24 11.93 7.24s-5.52-1.35-7.81-2.1c-2.29-.76-3.25-.96-6.46-.97-3.22 0-6.91-.1-9.4.1-3.8.3-3.04 5.1.96 6.99 4 1.88 10.33 2.72 12.62 3.48 2.3.75 8.83 3.97 10.18 5 1.35 1.02 7.73 6.5 8 7.21.26.7-3.14-1.2-8.35-3.63-5.2-2.44-12.72-6.1-14.89-6.86-2.17-.75-10.94-3.06-13.7-3.44-2.74-.38-3.2 3.45-1.06 6.83 2.15 3.37 10.09 5.47 12.72 6.87 2.62 1.4 10 5.77 14.01 8.25 4.02 2.48 6.7 4.4 6.28 5.85-.43 1.44-3.66.96-8.33.18-4.67-.8-10.44-2.25-14.16-3.2-3.72-.93-8.78-2.66-10.27-.82-1.48 1.84-.65 5.03 2.61 6.46 3.27 1.43 9.4 3.23 13.5 4.52 4.1 1.28 11.42 3.05 14.07 3.9 2.65.86 6.79 3.57 9.4 6.46 2.6 2.88 8 10.79 14.8 14.71 6.8 3.93 12.31 5.44 17.3 10.82 4.79 5.17 20.34 23.49 20.34 23.49s10.82-4.03 19.1-12.04c11.2-10.8 11.63-23.48 11.63-23.48Z"/>
  <path fill="#9A4A4D" d="M286.9 360.22a32.6 32.6 0 0 1-2.03-7.16c-.21 3.12-1.5 7.84-1.5 7.84 2.76 2.78 5.46 7.14 6.67 9.13-.16-3.39-1.76-6.8-3.14-9.8ZM248.71 346.78c3.56 1.66 4.99 2.38 7.35 4.15 2.37 1.78 11.05 8.5 11.05 8.5s-2.44-2.84-5.16-5.17c-3.01-2.56-5.02-4.2-7.51-5.37-2.5-1.17-5.73-2.11-5.73-2.11Z"/>
  <path fill="#B16668" d="M360.45 424.48s18.72-26.23 35.51-50.66c15.11-21.99 34.9-33.8 49.08-40.05 26.06 22.88-.45 85-.45 85-16.92 19.16-43.09 50.43-51.13 59.4-15 16.7-25.6 23.73-44.46 7.59-10.15-8.68-17.83-15.8-29.81-29.5-12.43-14.2-25.33-29.74-25.33-29.74l26.62-29.99 39.97 27.95Z"/>
  <path fill="#9A4A4D" d="M360.45 424.48c-6.72 7.79-10.28 16.51-8.15 30.64-5.67-8.79-6.04-22.85 3.63-33.77l4.52 3.13Z"/>
  <path fill="#37474f" d="M445.56 331.67c-18.91 8.33-30.93 11.67-50.86 41.38-13.95 20.8-31.72 46.04-31.72 46.04s-.17 11.22 16.58 26.95c16.75 15.72 29.78 16.38 29.78 16.38l35.96-42.51s32.17-61.38.26-88.24Z"/>
  <path fill="#0d6efd" d="m606.1 320.78-7.94-5.38c-4.63-3.06-11.29-2.77-18.9 1.62l-68.2 39.3c-15.29 8.8-28.63 30.8-29.79 49.12l-11.69 184.93 8 4.62 123.66-72.3 11.57-183.07c.58-9.22-2.02-15.75-6.7-18.84Z"/>
  <path fill="#000" d="m606.1 320.78-7.94-5.38c-4.63-3.06-11.29-2.77-18.9 1.62l-68.2 39.3c-15.29 8.8-28.63 30.8-29.79 49.12l-11.69 184.93 8 4.62 123.66-72.3 11.57-183.07c.58-9.22-2.02-15.75-6.7-18.84Z" opacity=".2"/>
  <path fill="#0d6efd" d="m605.5 455.12 7.31-115.5c.58-9.22-2.02-15.75-6.7-18.84-1.32-.87-6.58-4.46-7.95-5.38-4.63-3.06-11.29-2.77-18.9 1.62l-68.2 39.3c-7.8 4.49-15.08 12.43-20.5 21.55l114.95 77.25Z"/>
  <path fill="#fff" d="m605.5 455.12 7.31-115.5c.58-9.22-2.02-15.75-6.7-18.84-1.32-.87-6.58-4.46-7.95-5.38-4.63-3.06-11.29-2.77-18.9 1.62l-68.2 39.3c-7.8 4.49-15.08 12.43-20.5 21.55l114.95 77.25Z" opacity=".2"/>
  <path fill="#455a64" d="M606.1 320.8c-4.63-3.07-11.28-2.79-18.89 1.6l-68.2 39.3c-15.29 8.8-28.63 30.8-29.78 49.13l-11.65 184.16 10.98 6.33 123.59-71.33 11.57-183.08c.57-9.03-1.93-15.47-6.44-18.63-1.89-1.32-9.32-6.25-11.19-7.48Z"/>
  <path fill="#37474f" d="M498.52 383.22c-5.22 8.76-8.73 18.62-9.3 27.6l-11.64 184.16 10.98 6.34 123.59-71.33 4.27-67.54-117.9-79.23Z" opacity=".3"/>
  <path fill="#263238" d="m488.56 601.32 11.58-183.2c1.16-18.32 14.5-40.32 29.79-49.13l68.2-39.3c15.29-8.81 26.75-1.1 25.6 17.22L612.14 530l-123.6 71.33Z"/>
  <path fill="#0d6efd" d="m392.85 511.76 97.8 56.48-37.33 21.56-111.99-64.66 23.15-13.38a28.36 28.36 0 0 1 28.37 0Z"/>
  <path fill="#fff" d="m392.85 511.76 97.8 56.48-37.33 21.56-111.99-64.66 23.15-13.38a28.36 28.36 0 0 1 28.37 0Z" opacity=".2"/>
  <path fill="#0d6efd" d="M341.33 535.16v-10.02l111.99 64.65v10.03l-111.99-64.66Z"/>
  <path fill="#000" d="M341.33 535.16v-10.02l111.99 64.65v10.03l-111.99-64.66Z" opacity=".3"/>
  <path fill="#0d6efd" d="m490.65 568.24-.66 10.4-36.67 21.18v-10.03l37.33-21.55Z"/>
  <path fill="#000" d="m490.65 568.24-.66 10.4-36.67 21.18v-10.03l37.33-21.55Z" opacity=".15"/>
  <path fill="#fff" d="M545.64 92.22a40.66 40.66 0 0 1-10.95 27.84l-3.37 3.21a40.56 40.56 0 0 1-26.32 9.77 40.78 40.78 0 0 1-40.82-40.64 40.56 40.56 0 0 1 9.64-26.37l3.21-3.38a40.56 40.56 0 0 1 27.79-11.08 40.78 40.78 0 0 1 40.82 40.65Z"/>
  <path fill="#455a64" d="M504.8 48.12a44.23 44.23 0 0 0-44.08 44.29 44.24 44.24 0 0 0 36.93 43.47l4.99 12.8a2.57 2.57 0 0 0 4.79-.02l4.93-12.81a44.24 44.24 0 0 0 36.73-43.63 44.24 44.24 0 0 0-44.28-44.1Zm40.84 44.1a40.66 40.66 0 0 1-10.95 27.84l-3.37 3.21a40.57 40.57 0 0 1-26.32 9.77 40.78 40.78 0 0 1-40.82-40.64 40.56 40.56 0 0 1 9.64-26.37l3.21-3.38a40.56 40.56 0 0 1 27.79-11.08 40.78 40.78 0 0 1 40.82 40.65Z"/>
  <path fill="#fff" d="M545.64 92.22a40.66 40.66 0 0 1-10.95 27.84l-3.37 3.21a40.57 40.57 0 0 1-26.32 9.77 40.78 40.78 0 0 1-40.82-40.64 40.56 40.56 0 0 1 9.64-26.37l3.21-3.38a40.56 40.56 0 0 1 27.79-11.08 40.78 40.78 0 0 1 40.82 40.65Z" opacity=".7"/>
  <path fill="#0d6efd" d="M498.66 117.75a6.46 6.46 0 0 1-4.71-2.04l-14.63-15.62a6.46 6.46 0 0 1 9.42-8.82l9.5 10.14 22.48-28.48a6.45 6.45 0 1 1 10.14 8l-27.14 34.37a6.44 6.44 0 0 1-5.06 2.45Z"/>
</svg>